<?xml version="1.0" encoding="UTF-8" standalone="no"?>
<!-- Created with Inkscape (http://www.inkscape.org/) -->

<svg
   xmlns:dc="http://purl.org/dc/elements/1.1/"
   xmlns:cc="http://creativecommons.org/ns#"
   xmlns:rdf="http://www.w3.org/1999/02/22-rdf-syntax-ns#"
   xmlns:svg="http://www.w3.org/2000/svg"
   xmlns="http://www.w3.org/2000/svg"
   xmlns:xlink="http://www.w3.org/1999/xlink"
   xmlns:sodipodi="http://sodipodi.sourceforge.net/DTD/sodipodi-0.dtd"
   xmlns:inkscape="http://www.inkscape.org/namespaces/inkscape"
   width="30mm"
   height="30mm"
   viewBox="0 0 30 30"
   version="1.1"
   id="svg8"
   inkscape:version="0.92.4 (5da689c313, 2019-01-14)"
   sodipodi:docname="11_night.svg">
  <defs
     id="defs2">
    <clipPath
       clipPathUnits="userSpaceOnUse"
       id="clipPath3254-9">
      <path
         d="M 0,943.388 H 1828.656 V 0 H 0 Z"
         id="path3252-7"
         inkscape:connector-curvature="0" />
    </clipPath>
    <linearGradient
       x1="0"
       y1="0"
       x2="1"
       y2="0"
       gradientUnits="userSpaceOnUse"
       gradientTransform="matrix(20.325035,20.325035,20.325035,-20.325035,314.87137,688.47217)"
       spreadMethod="pad"
       id="linearGradient3276">
      <stop
         style="stop-opacity:1;stop-color:#d0e8f8"
         offset="0"
         id="stop3272" />
      <stop
         style="stop-opacity:1;stop-color:#e2eef9"
         offset="1"
         id="stop3274" />
    </linearGradient>
    <linearGradient
       x1="0"
       y1="0"
       x2="1"
       y2="0"
       gradientUnits="userSpaceOnUse"
       gradientTransform="matrix(6.8876667,0,0,-6.8876667,283.76889,679.18317)"
       spreadMethod="pad"
       id="linearGradient3296">
      <stop
         style="stop-opacity:1;stop-color:#00aeef"
         offset="0"
         id="stop3292" />
      <stop
         style="stop-opacity:1;stop-color:#00bdf2"
         offset="1"
         id="stop3294" />
    </linearGradient>
    <linearGradient
       x1="0"
       y1="0"
       x2="1"
       y2="0"
       gradientUnits="userSpaceOnUse"
       gradientTransform="matrix(6.8876667,0,0,-6.8876667,299.88071,679.18317)"
       spreadMethod="pad"
       id="linearGradient3316">
      <stop
         style="stop-opacity:1;stop-color:#00aeef"
         offset="0"
         id="stop3312" />
      <stop
         style="stop-opacity:1;stop-color:#00bdf2"
         offset="1"
         id="stop3314" />
    </linearGradient>
    <linearGradient
       x1="0"
       y1="0"
       x2="1"
       y2="0"
       gradientUnits="userSpaceOnUse"
       gradientTransform="matrix(6.8876667,0,0,-6.8876667,315.99252,679.18317)"
       spreadMethod="pad"
       id="linearGradient3336">
      <stop
         style="stop-opacity:1;stop-color:#00aeef"
         offset="0"
         id="stop3332" />
      <stop
         style="stop-opacity:1;stop-color:#00bdf2"
         offset="1"
         id="stop3334" />
    </linearGradient>
    <linearGradient
       x1="0"
       y1="0"
       x2="1"
       y2="0"
       gradientUnits="userSpaceOnUse"
       gradientTransform="matrix(6.8876667,0,0,-6.8876667,288.76889,672.00311)"
       spreadMethod="pad"
       id="linearGradient3356">
      <stop
         style="stop-opacity:1;stop-color:#00aeef"
         offset="0"
         id="stop3352" />
      <stop
         style="stop-opacity:1;stop-color:#00bdf2"
         offset="1"
         id="stop3354" />
    </linearGradient>
    <linearGradient
       x1="0"
       y1="0"
       x2="1"
       y2="0"
       gradientUnits="userSpaceOnUse"
       gradientTransform="matrix(6.8876667,0,0,-6.8876667,305.3812,672.00311)"
       spreadMethod="pad"
       id="linearGradient3376">
      <stop
         style="stop-opacity:1;stop-color:#00aeef"
         offset="0"
         id="stop3372" />
      <stop
         style="stop-opacity:1;stop-color:#00bdf2"
         offset="1"
         id="stop3374" />
    </linearGradient>
    <linearGradient
       x1="0"
       y1="0"
       x2="1"
       y2="0"
       gradientUnits="userSpaceOnUse"
       gradientTransform="matrix(6.8876667,0,0,-6.8876667,321.99252,672.00311)"
       spreadMethod="pad"
       id="linearGradient3396">
      <stop
         style="stop-opacity:1;stop-color:#00aeef"
         offset="0"
         id="stop3392" />
      <stop
         style="stop-opacity:1;stop-color:#00bdf2"
         offset="1"
         id="stop3394" />
    </linearGradient>
    <clipPath
       clipPathUnits="userSpaceOnUse"
       id="clipPath1818">
      <path
         d="M 0,943.388 H 1828.656 V 0 H 0 Z"
         id="path1816"
         inkscape:connector-curvature="0" />
    </clipPath>
    <clipPath
       clipPathUnits="userSpaceOnUse"
       id="clipPath3254-9-5">
      <path
         d="M 0,943.388 H 1828.656 V 0 H 0 Z"
         id="path3252-7-4"
         inkscape:connector-curvature="0" />
    </clipPath>
    <linearGradient
       inkscape:collect="always"
       xlink:href="#linearGradient3276"
       id="linearGradient4819"
       gradientUnits="userSpaceOnUse"
       gradientTransform="matrix(20.325035,20.325035,20.325035,-20.325035,314.87137,688.47217)"
       x1="0"
       y1="0"
       x2="1"
       y2="0"
       spreadMethod="pad" />
    <linearGradient
       inkscape:collect="always"
       xlink:href="#linearGradient3296"
       id="linearGradient4821"
       gradientUnits="userSpaceOnUse"
       gradientTransform="matrix(6.8876667,0,0,-6.8876667,283.76889,679.18317)"
       x1="0"
       y1="0"
       x2="1"
       y2="0"
       spreadMethod="pad" />
    <linearGradient
       inkscape:collect="always"
       xlink:href="#linearGradient3316"
       id="linearGradient4823"
       gradientUnits="userSpaceOnUse"
       gradientTransform="matrix(6.8876667,0,0,-6.8876667,299.88071,679.18317)"
       x1="0"
       y1="0"
       x2="1"
       y2="0"
       spreadMethod="pad" />
    <linearGradient
       inkscape:collect="always"
       xlink:href="#linearGradient3336"
       id="linearGradient4825"
       gradientUnits="userSpaceOnUse"
       gradientTransform="matrix(6.8876667,0,0,-6.8876667,315.99252,679.18317)"
       x1="0"
       y1="0"
       x2="1"
       y2="0"
       spreadMethod="pad" />
    <linearGradient
       inkscape:collect="always"
       xlink:href="#linearGradient3356"
       id="linearGradient4827"
       gradientUnits="userSpaceOnUse"
       gradientTransform="matrix(6.8876667,0,0,-6.8876667,288.76889,672.00311)"
       x1="0"
       y1="0"
       x2="1"
       y2="0"
       spreadMethod="pad" />
    <linearGradient
       inkscape:collect="always"
       xlink:href="#linearGradient3376"
       id="linearGradient4829"
       gradientUnits="userSpaceOnUse"
       gradientTransform="matrix(6.8876667,0,0,-6.8876667,305.3812,672.00311)"
       x1="0"
       y1="0"
       x2="1"
       y2="0"
       spreadMethod="pad" />
    <linearGradient
       inkscape:collect="always"
       xlink:href="#linearGradient3396"
       id="linearGradient4831"
       gradientUnits="userSpaceOnUse"
       gradientTransform="matrix(6.8876667,0,0,-6.8876667,321.99252,672.00311)"
       x1="0"
       y1="0"
       x2="1"
       y2="0"
       spreadMethod="pad" />
    <linearGradient
       x1="0"
       y1="0"
       x2="1"
       y2="0"
       gradientUnits="userSpaceOnUse"
       gradientTransform="matrix(10.499464,0,0,-10.499464,442.10126,676.15814)"
       spreadMethod="pad"
       id="linearGradient2168">
      <stop
         style="stop-opacity:1;stop-color:#00aeef"
         offset="0"
         id="stop2164" />
      <stop
         style="stop-opacity:1;stop-color:#00bdf2"
         offset="1"
         id="stop2166" />
    </linearGradient>
    <linearGradient
       x1="0"
       y1="0"
       x2="1"
       y2="0"
       gradientUnits="userSpaceOnUse"
       gradientTransform="matrix(10.499464,0,0,-10.499464,431.46698,676.15814)"
       spreadMethod="pad"
       id="linearGradient2148">
      <stop
         style="stop-opacity:1;stop-color:#00aeef"
         offset="0"
         id="stop2144" />
      <stop
         style="stop-opacity:1;stop-color:#00bdf2"
         offset="1"
         id="stop2146" />
    </linearGradient>
    <clipPath
       clipPathUnits="userSpaceOnUse"
       id="clipPath2126">
      <path
         d="M 0,943.388 H 1828.656 V 0 H 0 Z"
         id="path2124"
         inkscape:connector-curvature="0" />
    </clipPath>
    <linearGradient
       x1="0"
       y1="0"
       x2="1"
       y2="0"
       gradientUnits="userSpaceOnUse"
       gradientTransform="matrix(32.367748,32.367748,32.367748,-32.367748,439.4563,686.9718)"
       spreadMethod="pad"
       id="linearGradient2116">
      <stop
         style="stop-opacity:1;stop-color:#d0e8f8"
         offset="0"
         id="stop2112" />
      <stop
         style="stop-opacity:1;stop-color:#e2eef9"
         offset="1"
         id="stop2114" />
    </linearGradient>
    <linearGradient
       x1="0"
       y1="0"
       x2="1"
       y2="0"
       gradientUnits="userSpaceOnUse"
       gradientTransform="matrix(15.601304,15.601304,15.601304,-15.601304,470.26816,712.14948)"
       spreadMethod="pad"
       id="linearGradient2096">
      <stop
         style="stop-opacity:1;stop-color:#00aeef"
         offset="0"
         id="stop2092" />
      <stop
         style="stop-opacity:1;stop-color:#00bdf2"
         offset="1"
         id="stop2094" />
    </linearGradient>
    <linearGradient
       x1="0"
       y1="0"
       x2="1"
       y2="0"
       gradientUnits="userSpaceOnUse"
       gradientTransform="matrix(19.207622,19.207622,19.207622,-19.207622,456.44067,672.76135)"
       spreadMethod="pad"
       id="linearGradient2076">
      <stop
         style="stop-opacity:1;stop-color:#fdb727"
         offset="0"
         id="stop2072" />
      <stop
         style="stop-opacity:1;stop-color:#ffce22"
         offset="1"
         id="stop2074" />
    </linearGradient>
  </defs>
  <sodipodi:namedview
     id="base"
     pagecolor="#ffffff"
     bordercolor="#666666"
     borderopacity="1.0"
     inkscape:pageopacity="0.0"
     inkscape:pageshadow="2"
     inkscape:zoom="6.5926592"
     inkscape:cx="57.575173"
     inkscape:cy="73.414364"
     inkscape:document-units="mm"
     inkscape:current-layer="layer1"
     showgrid="false"
     inkscape:pagecheckerboard="true"
     inkscape:window-width="1080"
     inkscape:window-height="1857"
     inkscape:window-x="-8"
     inkscape:window-y="-8"
     inkscape:window-maximized="1" />
  <metadata
     id="metadata5">
    <rdf:RDF>
      <cc:Work
         rdf:about="">
        <dc:format>image/svg+xml</dc:format>
        <dc:type
           rdf:resource="http://purl.org/dc/dcmitype/StillImage" />
        <dc:title></dc:title>
      </cc:Work>
    </rdf:RDF>
  </metadata>
  <g
     inkscape:label="Layer 1"
     inkscape:groupmode="layer"
     id="layer1"
     transform="translate(60.229727,-160.66215)">
    <g
       transform="matrix(0.35277777,0,0,-0.35277777,-207.53318,422.40674)"
       id="g2060">
      <g
         id="g2062">
        <g
           id="g2068">
          <g
             id="g2070">
            <path
               d="m 463.752,692.188 -5.267,-9.122 c -0.825,-1.428 -0.154,-2.499 1.492,-2.378 v 0 l 4.302,0.317 c 1.646,0.12 2.348,-0.967 1.56,-2.417 v 0 l -4.785,-8.806 c -0.788,-1.45 -0.39,-1.779 0.885,-0.73 v 0 l 17.301,14.229 c 1.274,1.048 0.968,1.837 -0.679,1.752 v 0 l -6.611,-0.338 c -1.648,-0.085 -2.321,1.016 -1.497,2.445 v 0 l 2.91,5.039 c 0.825,1.429 0.15,2.599 -1.499,2.601 v 0 l -3.612,0.003 c -0.002,0 -0.004,0 -0.006,0 v 0 c -1.649,0 -3.67,-1.167 -4.494,-2.595"
               style="fill:url(#linearGradient2076);stroke:none"
               id="path2078"
               inkscape:connector-curvature="0" />
          </g>
        </g>
      </g>
    </g>
    <g
       transform="matrix(0.35277777,0,0,-0.35277777,-207.53318,422.40674)"
       id="g2080">
      <g
         id="g2082">
        <g
           id="g2088">
          <g
             id="g2090">
            <path
               d="m 476.559,736.503 c -6.226,-1.786 -10.573,-7.556 -10.573,-14.03 v 0 c 0,-8.054 6.552,-14.607 14.606,-14.607 v 0 c 6.474,0 12.243,4.348 14.03,10.574 v 0 c 0.076,0.268 0.002,0.556 -0.194,0.753 v 0 c -0.197,0.195 -0.484,0.269 -0.752,0.194 v 0 c -1.195,-0.343 -2.41,-0.517 -3.611,-0.517 v 0 c -7.21,0 -13.076,5.866 -13.076,13.076 v 0 c 0,1.202 0.175,2.417 0.517,3.61 v 0 c 0.076,0.269 0.002,0.556 -0.195,0.753 v 0 c -0.145,0.145 -0.339,0.223 -0.54,0.223 v 0 c -0.071,0 -0.142,-0.009 -0.212,-0.029"
               style="fill:url(#linearGradient2096);stroke:none"
               id="path2098"
               inkscape:connector-curvature="0" />
          </g>
        </g>
      </g>
    </g>
    <g
       transform="matrix(0.35277777,0,0,-0.35277777,-207.53318,422.40674)"
       id="g2100">
      <g
         id="g2102">
        <g
           id="g2108">
          <g
             id="g2110">
            <path
               d="m 441.103,717.435 c -0.085,0.002 -0.169,0.006 -0.252,0.006 v 0 c -7.29,0 -13.199,-5.909 -13.199,-13.197 v 0 c 0,-7.29 5.909,-13.199 13.199,-13.199 v 0 h 32.804 c 5.889,0 10.664,4.774 10.664,10.663 v 0 c 0,5.89 -4.775,10.664 -10.664,10.664 v 0 c -0.037,0 -0.072,-0.005 -0.109,-0.005 v 0 c -0.949,8.503 -8.158,15.116 -16.915,15.116 v 0 c -6.916,0 -12.864,-4.125 -15.528,-10.048"
               style="fill:url(#linearGradient2116);stroke:none"
               id="path2118"
               inkscape:connector-curvature="0" />
          </g>
        </g>
      </g>
    </g>
    <g
       transform="matrix(0.35277777,0,0,-0.35277777,-207.53318,422.40674)"
       id="g2120">
      <g
         id="g2122"
         clip-path="url(#clipPath2126)">
        <g
           id="g2128"
           transform="translate(487.8722,691.045)">
          <path
             d="m 0,0 c 3.698,0 6.696,2.998 6.696,6.696 0,3.699 -2.998,6.696 -6.696,6.696 -0.023,0 -0.045,-0.003 -0.068,-0.003 -0.596,5.34 -5.123,9.492 -10.622,9.492 -4.343,0 -8.078,-2.59 -9.751,-6.31 -0.053,10e-4 -0.105,0.004 -0.158,0.004 -4.577,0 -8.288,-3.71 -8.288,-8.287 0,-4.578 3.711,-8.288 8.288,-8.288"
             style="fill:#ffffff;fill-opacity:1;fill-rule:nonzero;stroke:none"
             id="path2130"
             inkscape:connector-curvature="0" />
        </g>
      </g>
    </g>
    <g
       transform="matrix(0.35277777,0,0,-0.35277777,-207.53318,422.40674)"
       id="g2132">
      <g
         id="g2134">
        <g
           id="g2140">
          <g
             id="g2142">
            <path
               d="m 438.234,682.787 -6.499,-11.257 c -0.552,-0.957 -0.224,-2.18 0.732,-2.733 v 0 c 0.315,-0.182 0.659,-0.267 0.998,-0.267 v 0 c 0.692,0 1.365,0.358 1.734,1 v 0 l 6.499,11.257 c 0.553,0.957 0.225,2.18 -0.731,2.732 v 0 c -0.315,0.182 -0.659,0.268 -0.998,0.268 v 0 c -0.692,0 -1.365,-0.358 -1.735,-1"
               style="fill:url(#linearGradient2148);stroke:none"
               id="path2150"
               inkscape:connector-curvature="0" />
          </g>
        </g>
      </g>
    </g>
    <g
       transform="matrix(0.35277777,0,0,-0.35277777,-207.53318,422.40674)"
       id="g2152">
      <g
         id="g2154">
        <g
           id="g2160">
          <g
             id="g2162">
            <path
               d="M 448.869,682.787 442.37,671.53 c -0.553,-0.957 -0.225,-2.18 0.732,-2.733 v 0 c 0.315,-0.182 0.658,-0.267 0.998,-0.267 v 0 c 0.691,0 1.363,0.358 1.734,1 v 0 l 6.499,11.257 c 0.551,0.957 0.224,2.18 -0.732,2.732 v 0 c -0.315,0.182 -0.659,0.268 -0.998,0.268 v 0 c -0.691,0 -1.364,-0.358 -1.734,-1"
               style="fill:url(#linearGradient2168);stroke:none"
               id="path2170"
               inkscape:connector-curvature="0" />
          </g>
        </g>
      </g>
    </g>
    <g
       inkscape:tile-y0="-203.02862"
       inkscape:tile-x0="-187.24688"
       style="opacity:0"
       id="use4391"
       transform="translate(127.01716,363.69078)">
      <rect
         style="opacity:0;fill:#a5c2d1;fill-opacity:1;stroke:none;stroke-width:2.43217826;stroke-miterlimit:4;stroke-dasharray:none;stroke-dashoffset:0;stroke-opacity:1;paint-order:markers stroke fill"
         id="rect4737"
         width="30"
         height="30"
         x="-187.24689"
         y="-203.02863" />
      <g
         transform="matrix(0.35277777,0,0,-0.35277777,-281.09034,58.715968)"
         id="g4745">
        <g
           id="g4743"
           clip-path="url(#clipPath3254-9-5)">
          <g
             id="g4741"
             transform="translate(322.1286,691.0299)">
            <path
               d="m 0,0 c 5.889,0 10.664,4.774 10.664,10.664 0,5.889 -4.775,10.664 -10.664,10.664 -0.037,0 -0.072,-0.006 -0.109,-0.006 -0.949,8.504 -8.158,15.116 -16.915,15.116 -6.915,0 -12.864,-4.125 -15.528,-10.048 -0.085,0.002 -0.168,0.006 -0.253,0.006 -7.289,0 -13.198,-5.909 -13.198,-13.198 C -46.003,5.909 -40.094,0 -32.805,0"
               style="fill:#ffffff;fill-opacity:1;fill-rule:nonzero;stroke:none"
               id="path4739"
               inkscape:connector-curvature="0" />
          </g>
        </g>
      </g>
      <g
         transform="matrix(0.35277777,0,0,-0.35277777,-281.09034,58.715968)"
         id="g4755">
        <g
           id="g4753">
          <g
             id="g4751">
            <g
               id="g4749">
              <path
                 d="m 315.904,707.602 c -0.052,0 -0.104,0.003 -0.157,0.003 v 0 c -4.577,0 -8.288,-3.711 -8.288,-8.288 v 0 c 0,-4.576 3.711,-8.287 8.288,-8.287 v 0 h 20.599 c 3.698,0 6.696,2.998 6.696,6.696 v 0 c 0,3.698 -2.998,6.697 -6.696,6.697 v 0 c -0.023,0 -0.046,-0.004 -0.068,-0.004 v 0 c -0.596,5.34 -5.123,9.492 -10.622,9.492 v 0 c -4.342,0 -8.078,-2.591 -9.752,-6.309"
                 style="fill:url(#linearGradient4819);stroke:none"
                 id="path4747"
                 inkscape:connector-curvature="0" />
            </g>
          </g>
        </g>
      </g>
      <g
         transform="matrix(0.35277777,0,0,-0.35277777,-281.09034,58.715968)"
         id="g4765">
        <g
           id="g4763">
          <g
             id="g4761">
            <g
               id="g4759">
              <path
                 d="m 286.924,682.682 -2.888,-4.999 c -0.551,-0.957 -0.224,-2.18 0.733,-2.732 v 0 c 0.316,-0.182 0.66,-0.269 0.998,-0.269 v 0 c 0.691,0 1.364,0.359 1.734,1.001 v 0 l 2.888,5 c 0.551,0.956 0.224,2.179 -0.733,2.732 v 0 c -0.316,0.182 -0.66,0.269 -0.999,0.269 v 0 c -0.692,0 -1.363,-0.36 -1.733,-1.002"
                 style="fill:url(#linearGradient4821);stroke:none"
                 id="path4757"
                 inkscape:connector-curvature="0" />
            </g>
          </g>
        </g>
      </g>
      <g
         transform="matrix(0.35277777,0,0,-0.35277777,-281.09034,58.715968)"
         id="g4775">
        <g
           id="g4773">
          <g
             id="g4771">
            <g
               id="g4769">
              <path
                 d="m 303.035,682.682 -2.887,-4.999 c -0.552,-0.957 -0.224,-2.18 0.733,-2.732 v 0 c 0.316,-0.182 0.659,-0.269 0.998,-0.269 v 0 c 0.691,0 1.363,0.359 1.734,1.001 v 0 l 2.887,5 c 0.552,0.956 0.224,2.179 -0.732,2.732 v 0 c -0.316,0.182 -0.66,0.269 -1,0.269 v 0 c -0.691,0 -1.362,-0.36 -1.733,-1.002"
                 style="fill:url(#linearGradient4823);stroke:none"
                 id="path4767"
                 inkscape:connector-curvature="0" />
            </g>
          </g>
        </g>
      </g>
      <g
         transform="matrix(0.35277777,0,0,-0.35277777,-281.09034,58.715968)"
         id="g4785">
        <g
           id="g4783">
          <g
             id="g4781">
            <g
               id="g4779">
              <path
                 d="m 319.147,682.682 -2.887,-4.999 c -0.552,-0.957 -0.224,-2.18 0.733,-2.732 v 0 c 0.316,-0.182 0.659,-0.269 0.998,-0.269 v 0 c 0.691,0 1.363,0.359 1.734,1.001 v 0 l 2.887,5 c 0.552,0.956 0.224,2.179 -0.732,2.732 v 0 c -0.316,0.182 -0.661,0.269 -1,0.269 v 0 c -0.691,0 -1.362,-0.36 -1.733,-1.002"
                 style="fill:url(#linearGradient4825);stroke:none"
                 id="path4777"
                 inkscape:connector-curvature="0" />
            </g>
          </g>
        </g>
      </g>
      <g
         transform="matrix(0.35277777,0,0,-0.35277777,-281.09034,58.715968)"
         id="g4795">
        <g
           id="g4793">
          <g
             id="g4791">
            <g
               id="g4789">
              <path
                 d="m 291.923,675.503 -2.886,-5 c -0.552,-0.956 -0.225,-2.18 0.732,-2.732 v 0 c 0.315,-0.182 0.659,-0.269 0.998,-0.269 v 0 c 0.692,0 1.363,0.359 1.735,1.001 v 0 l 2.886,5 c 0.552,0.957 0.225,2.18 -0.733,2.732 v 0 c -0.315,0.182 -0.659,0.269 -0.999,0.269 v 0 c -0.691,0 -1.362,-0.359 -1.733,-1.001"
                 style="fill:url(#linearGradient4827);stroke:none"
                 id="path4787"
                 inkscape:connector-curvature="0" />
            </g>
          </g>
        </g>
      </g>
      <g
         transform="matrix(0.35277777,0,0,-0.35277777,-281.09034,58.715968)"
         id="g4805">
        <g
           id="g4803">
          <g
             id="g4801">
            <g
               id="g4799">
              <path
                 d="m 308.536,675.503 -2.887,-5 c -0.552,-0.956 -0.224,-2.18 0.733,-2.732 v 0 c 0.315,-0.182 0.658,-0.269 0.998,-0.269 v 0 c 0.691,0 1.363,0.359 1.734,1.001 v 0 l 2.886,5 c 0.552,0.957 0.225,2.18 -0.731,2.732 v 0 c -0.317,0.182 -0.661,0.269 -1.001,0.269 v 0 c -0.691,0 -1.361,-0.359 -1.732,-1.001"
                 style="fill:url(#linearGradient4829);stroke:none"
                 id="path4797"
                 inkscape:connector-curvature="0" />
            </g>
          </g>
        </g>
      </g>
      <g
         transform="matrix(0.35277777,0,0,-0.35277777,-281.09034,58.715968)"
         id="g4815">
        <g
           id="g4813">
          <g
             id="g4811">
            <g
               id="g4809">
              <path
                 d="m 325.147,675.503 -2.887,-5 c -0.551,-0.956 -0.224,-2.18 0.733,-2.732 v 0 c 0.315,-0.182 0.659,-0.269 0.998,-0.269 v 0 c 0.691,0 1.363,0.359 1.734,1.001 v 0 l 2.887,5 c 0.551,0.957 0.225,2.18 -0.732,2.732 v 0 c -0.316,0.182 -0.661,0.269 -1,0.269 v 0 c -0.691,0 -1.362,-0.359 -1.733,-1.001"
                 style="fill:url(#linearGradient4831);stroke:none"
                 id="path4807"
                 inkscape:connector-curvature="0" />
            </g>
          </g>
        </g>
      </g>
    </g>
  </g>
</svg>
