<?xml version="1.0" encoding="UTF-8" standalone="no"?>
<!-- Created with Inkscape (http://www.inkscape.org/) -->

<svg
   xmlns:dc="http://purl.org/dc/elements/1.1/"
   xmlns:cc="http://creativecommons.org/ns#"
   xmlns:rdf="http://www.w3.org/1999/02/22-rdf-syntax-ns#"
   xmlns:svg="http://www.w3.org/2000/svg"
   xmlns="http://www.w3.org/2000/svg"
   xmlns:xlink="http://www.w3.org/1999/xlink"
   xmlns:sodipodi="http://sodipodi.sourceforge.net/DTD/sodipodi-0.dtd"
   xmlns:inkscape="http://www.inkscape.org/namespaces/inkscape"
   width="30mm"
   height="30mm"
   viewBox="0 0 30 30"
   version="1.1"
   id="svg8"
   inkscape:version="0.92.4 (5da689c313, 2019-01-14)"
   sodipodi:docname="4_night.svg">
  <defs
     id="defs2">
    <clipPath
       clipPathUnits="userSpaceOnUse"
       id="clipPath3254-9">
      <path
         d="M 0,943.388 H 1828.656 V 0 H 0 Z"
         id="path3252-7"
         inkscape:connector-curvature="0" />
    </clipPath>
    <linearGradient
       x1="0"
       y1="0"
       x2="1"
       y2="0"
       gradientUnits="userSpaceOnUse"
       gradientTransform="matrix(20.325035,20.325035,20.325035,-20.325035,314.87137,688.47217)"
       spreadMethod="pad"
       id="linearGradient3276">
      <stop
         style="stop-opacity:1;stop-color:#d0e8f8"
         offset="0"
         id="stop3272" />
      <stop
         style="stop-opacity:1;stop-color:#e2eef9"
         offset="1"
         id="stop3274" />
    </linearGradient>
    <linearGradient
       x1="0"
       y1="0"
       x2="1"
       y2="0"
       gradientUnits="userSpaceOnUse"
       gradientTransform="matrix(6.8876667,0,0,-6.8876667,283.76889,679.18317)"
       spreadMethod="pad"
       id="linearGradient3296">
      <stop
         style="stop-opacity:1;stop-color:#00aeef"
         offset="0"
         id="stop3292" />
      <stop
         style="stop-opacity:1;stop-color:#00bdf2"
         offset="1"
         id="stop3294" />
    </linearGradient>
    <linearGradient
       x1="0"
       y1="0"
       x2="1"
       y2="0"
       gradientUnits="userSpaceOnUse"
       gradientTransform="matrix(6.8876667,0,0,-6.8876667,299.88071,679.18317)"
       spreadMethod="pad"
       id="linearGradient3316">
      <stop
         style="stop-opacity:1;stop-color:#00aeef"
         offset="0"
         id="stop3312" />
      <stop
         style="stop-opacity:1;stop-color:#00bdf2"
         offset="1"
         id="stop3314" />
    </linearGradient>
    <linearGradient
       x1="0"
       y1="0"
       x2="1"
       y2="0"
       gradientUnits="userSpaceOnUse"
       gradientTransform="matrix(6.8876667,0,0,-6.8876667,315.99252,679.18317)"
       spreadMethod="pad"
       id="linearGradient3336">
      <stop
         style="stop-opacity:1;stop-color:#00aeef"
         offset="0"
         id="stop3332" />
      <stop
         style="stop-opacity:1;stop-color:#00bdf2"
         offset="1"
         id="stop3334" />
    </linearGradient>
    <linearGradient
       x1="0"
       y1="0"
       x2="1"
       y2="0"
       gradientUnits="userSpaceOnUse"
       gradientTransform="matrix(6.8876667,0,0,-6.8876667,288.76889,672.00311)"
       spreadMethod="pad"
       id="linearGradient3356">
      <stop
         style="stop-opacity:1;stop-color:#00aeef"
         offset="0"
         id="stop3352" />
      <stop
         style="stop-opacity:1;stop-color:#00bdf2"
         offset="1"
         id="stop3354" />
    </linearGradient>
    <linearGradient
       x1="0"
       y1="0"
       x2="1"
       y2="0"
       gradientUnits="userSpaceOnUse"
       gradientTransform="matrix(6.8876667,0,0,-6.8876667,305.3812,672.00311)"
       spreadMethod="pad"
       id="linearGradient3376">
      <stop
         style="stop-opacity:1;stop-color:#00aeef"
         offset="0"
         id="stop3372" />
      <stop
         style="stop-opacity:1;stop-color:#00bdf2"
         offset="1"
         id="stop3374" />
    </linearGradient>
    <linearGradient
       x1="0"
       y1="0"
       x2="1"
       y2="0"
       gradientUnits="userSpaceOnUse"
       gradientTransform="matrix(6.8876667,0,0,-6.8876667,321.99252,672.00311)"
       spreadMethod="pad"
       id="linearGradient3396">
      <stop
         style="stop-opacity:1;stop-color:#00aeef"
         offset="0"
         id="stop3392" />
      <stop
         style="stop-opacity:1;stop-color:#00bdf2"
         offset="1"
         id="stop3394" />
    </linearGradient>
    <clipPath
       clipPathUnits="userSpaceOnUse"
       id="clipPath1818">
      <path
         d="M 0,943.388 H 1828.656 V 0 H 0 Z"
         id="path1816"
         inkscape:connector-curvature="0" />
    </clipPath>
    <clipPath
       clipPathUnits="userSpaceOnUse"
       id="clipPath3254-9-5">
      <path
         d="M 0,943.388 H 1828.656 V 0 H 0 Z"
         id="path3252-7-4"
         inkscape:connector-curvature="0" />
    </clipPath>
    <linearGradient
       x1="0"
       y1="0"
       x2="1"
       y2="0"
       gradientUnits="userSpaceOnUse"
       gradientTransform="matrix(10.499464,0,0,-10.499464,442.10126,676.15814)"
       spreadMethod="pad"
       id="linearGradient2168">
      <stop
         style="stop-opacity:1;stop-color:#00aeef"
         offset="0"
         id="stop2164" />
      <stop
         style="stop-opacity:1;stop-color:#00bdf2"
         offset="1"
         id="stop2166" />
    </linearGradient>
    <linearGradient
       x1="0"
       y1="0"
       x2="1"
       y2="0"
       gradientUnits="userSpaceOnUse"
       gradientTransform="matrix(10.499464,0,0,-10.499464,431.46698,676.15814)"
       spreadMethod="pad"
       id="linearGradient2148">
      <stop
         style="stop-opacity:1;stop-color:#00aeef"
         offset="0"
         id="stop2144" />
      <stop
         style="stop-opacity:1;stop-color:#00bdf2"
         offset="1"
         id="stop2146" />
    </linearGradient>
    <clipPath
       clipPathUnits="userSpaceOnUse"
       id="clipPath2126">
      <path
         d="M 0,943.388 H 1828.656 V 0 H 0 Z"
         id="path2124"
         inkscape:connector-curvature="0" />
    </clipPath>
    <linearGradient
       x1="0"
       y1="0"
       x2="1"
       y2="0"
       gradientUnits="userSpaceOnUse"
       gradientTransform="matrix(32.367748,32.367748,32.367748,-32.367748,439.4563,686.9718)"
       spreadMethod="pad"
       id="linearGradient2116">
      <stop
         style="stop-opacity:1;stop-color:#d0e8f8"
         offset="0"
         id="stop2112" />
      <stop
         style="stop-opacity:1;stop-color:#e2eef9"
         offset="1"
         id="stop2114" />
    </linearGradient>
    <linearGradient
       x1="0"
       y1="0"
       x2="1"
       y2="0"
       gradientUnits="userSpaceOnUse"
       gradientTransform="matrix(15.601304,15.601304,15.601304,-15.601304,470.26816,712.14948)"
       spreadMethod="pad"
       id="linearGradient2096">
      <stop
         style="stop-opacity:1;stop-color:#00aeef"
         offset="0"
         id="stop2092" />
      <stop
         style="stop-opacity:1;stop-color:#00bdf2"
         offset="1"
         id="stop2094" />
    </linearGradient>
    <linearGradient
       x1="0"
       y1="0"
       x2="1"
       y2="0"
       gradientUnits="userSpaceOnUse"
       gradientTransform="matrix(19.207622,19.207622,19.207622,-19.207622,456.44067,672.76135)"
       spreadMethod="pad"
       id="linearGradient2076">
      <stop
         style="stop-opacity:1;stop-color:#fdb727"
         offset="0"
         id="stop2072" />
      <stop
         style="stop-opacity:1;stop-color:#ffce22"
         offset="1"
         id="stop2074" />
    </linearGradient>
    <clipPath
       clipPathUnits="userSpaceOnUse"
       id="clipPath3254-9-7">
      <path
         d="M 0,943.388 H 1828.656 V 0 H 0 Z"
         id="path3252-7-2"
         inkscape:connector-curvature="0" />
    </clipPath>
    <linearGradient
       x1="0"
       y1="0"
       x2="1"
       y2="0"
       gradientUnits="userSpaceOnUse"
       gradientTransform="matrix(10.499464,0,0,-10.499464,593.71094,675.68274)"
       spreadMethod="pad"
       id="linearGradient2260">
      <stop
         style="stop-opacity:1;stop-color:#00aeef"
         offset="0"
         id="stop2256" />
      <stop
         style="stop-opacity:1;stop-color:#00bdf2"
         offset="1"
         id="stop2258" />
    </linearGradient>
    <linearGradient
       x1="0"
       y1="0"
       x2="1"
       y2="0"
       gradientUnits="userSpaceOnUse"
       gradientTransform="matrix(10.499464,0,0,-10.499464,583.07666,675.68274)"
       spreadMethod="pad"
       id="linearGradient2240">
      <stop
         style="stop-opacity:1;stop-color:#00aeef"
         offset="0"
         id="stop2236" />
      <stop
         style="stop-opacity:1;stop-color:#00bdf2"
         offset="1"
         id="stop2238" />
    </linearGradient>
    <linearGradient
       x1="0"
       y1="0"
       x2="1"
       y2="0"
       gradientUnits="userSpaceOnUse"
       gradientTransform="matrix(20.325035,20.325035,20.325035,-20.325035,618.00739,688.01172)"
       spreadMethod="pad"
       id="linearGradient2220">
      <stop
         style="stop-opacity:1;stop-color:#d0e8f8"
         offset="0"
         id="stop2216" />
      <stop
         style="stop-opacity:1;stop-color:#e2eef9"
         offset="1"
         id="stop2218" />
    </linearGradient>
    <clipPath
       clipPathUnits="userSpaceOnUse"
       id="clipPath2198">
      <path
         d="M 0,943.388 H 1828.656 V 0 H 0 Z"
         id="path2196"
         inkscape:connector-curvature="0" />
    </clipPath>
    <linearGradient
       x1="0"
       y1="0"
       x2="1"
       y2="0"
       gradientUnits="userSpaceOnUse"
       gradientTransform="matrix(19.207622,19.207622,19.207622,-19.207622,608.05035,672.28589)"
       spreadMethod="pad"
       id="linearGradient2188">
      <stop
         style="stop-opacity:1;stop-color:#fdb727"
         offset="0"
         id="stop2184" />
      <stop
         style="stop-opacity:1;stop-color:#ffce22"
         offset="1"
         id="stop2186" />
    </linearGradient>
    <clipPath
       clipPathUnits="userSpaceOnUse"
       id="clipPath3254-9-6">
      <path
         d="M 0,943.388 H 1828.656 V 0 H 0 Z"
         id="path3252-7-42"
         inkscape:connector-curvature="0" />
    </clipPath>
    <clipPath
       clipPathUnits="userSpaceOnUse"
       id="clipPath2198-4">
      <path
         d="M 0,943.388 H 1828.656 V 0 H 0 Z"
         id="path2196-2"
         inkscape:connector-curvature="0" />
    </clipPath>
    <clipPath
       clipPathUnits="userSpaceOnUse"
       id="clipPath3254-9-9">
      <path
         d="M 0,943.388 H 1828.656 V 0 H 0 Z"
         id="path3252-7-5"
         inkscape:connector-curvature="0" />
    </clipPath>
    <linearGradient
       x1="0"
       y1="0"
       x2="1"
       y2="0"
       gradientUnits="userSpaceOnUse"
       gradientTransform="matrix(4,0,0,-4,770.01739,673.14679)"
       spreadMethod="pad"
       id="linearGradient888">
      <stop
         style="stop-opacity:1;stop-color:#d0e8f8"
         offset="0"
         id="stop884" />
      <stop
         style="stop-opacity:1;stop-color:#e2eef9"
         offset="1"
         id="stop886" />
    </linearGradient>
    <linearGradient
       x1="0"
       y1="0"
       x2="1"
       y2="0"
       gradientUnits="userSpaceOnUse"
       gradientTransform="matrix(4,0,0,-4,760.01739,673.14679)"
       spreadMethod="pad"
       id="linearGradient868">
      <stop
         style="stop-opacity:1;stop-color:#d0e8f8"
         offset="0"
         id="stop864" />
      <stop
         style="stop-opacity:1;stop-color:#e2eef9"
         offset="1"
         id="stop866" />
    </linearGradient>
    <linearGradient
       x1="0"
       y1="0"
       x2="1"
       y2="0"
       gradientUnits="userSpaceOnUse"
       gradientTransform="matrix(4,0,0,-4,755.01739,664.64679)"
       spreadMethod="pad"
       id="linearGradient848">
      <stop
         style="stop-opacity:1;stop-color:#d0e8f8"
         offset="0"
         id="stop844" />
      <stop
         style="stop-opacity:1;stop-color:#e2eef9"
         offset="1"
         id="stop846" />
    </linearGradient>
    <linearGradient
       x1="0"
       y1="0"
       x2="1"
       y2="0"
       gradientUnits="userSpaceOnUse"
       gradientTransform="matrix(4,0,0,-4,774.01739,681.25427)"
       spreadMethod="pad"
       id="linearGradient828">
      <stop
         style="stop-opacity:1;stop-color:#d0e8f8"
         offset="0"
         id="stop824" />
      <stop
         style="stop-opacity:1;stop-color:#e2eef9"
         offset="1"
         id="stop826" />
    </linearGradient>
    <linearGradient
       x1="0"
       y1="0"
       x2="1"
       y2="0"
       gradientUnits="userSpaceOnUse"
       gradientTransform="matrix(4,0,0,-4,764.01739,681.25427)"
       spreadMethod="pad"
       id="linearGradient808">
      <stop
         style="stop-opacity:1;stop-color:#d0e8f8"
         offset="0"
         id="stop804" />
      <stop
         style="stop-opacity:1;stop-color:#e2eef9"
         offset="1"
         id="stop806" />
    </linearGradient>
    <linearGradient
       x1="0"
       y1="0"
       x2="1"
       y2="0"
       gradientUnits="userSpaceOnUse"
       gradientTransform="matrix(14.000948,0,0,-14.000948,742.78418,672.59326)"
       spreadMethod="pad"
       id="linearGradient788">
      <stop
         style="stop-opacity:1;stop-color:#00aeef"
         offset="0"
         id="stop784" />
      <stop
         style="stop-opacity:1;stop-color:#00bdf2"
         offset="1"
         id="stop786" />
    </linearGradient>
    <linearGradient
       x1="0"
       y1="0"
       x2="1"
       y2="0"
       gradientUnits="userSpaceOnUse"
       gradientTransform="matrix(10.499971,0,0,-10.499971,735.64453,675.62524)"
       spreadMethod="pad"
       id="linearGradient768">
      <stop
         style="stop-opacity:1;stop-color:#00aeef"
         offset="0"
         id="stop764" />
      <stop
         style="stop-opacity:1;stop-color:#00bdf2"
         offset="1"
         id="stop766" />
    </linearGradient>
    <linearGradient
       x1="0"
       y1="0"
       x2="1"
       y2="0"
       gradientUnits="userSpaceOnUse"
       gradientTransform="matrix(20.325035,20.325035,20.325035,-20.325035,769.57538,688.04236)"
       spreadMethod="pad"
       id="linearGradient748">
      <stop
         style="stop-opacity:1;stop-color:#d0e8f8"
         offset="0"
         id="stop744" />
      <stop
         style="stop-opacity:1;stop-color:#e2eef9"
         offset="1"
         id="stop746" />
    </linearGradient>
    <clipPath
       clipPathUnits="userSpaceOnUse"
       id="clipPath3254-9-8">
      <path
         d="M 0,943.388 H 1828.656 V 0 H 0 Z"
         id="path3252-7-3"
         inkscape:connector-curvature="0" />
    </clipPath>
    <linearGradient
       x1="0"
       y1="0"
       x2="1"
       y2="0"
       gradientUnits="userSpaceOnUse"
       gradientTransform="matrix(18,0,0,-18,917.45129,674.06396)"
       spreadMethod="pad"
       id="linearGradient2892">
      <stop
         style="stop-opacity:1;stop-color:#00aeef"
         offset="0"
         id="stop2888" />
      <stop
         style="stop-opacity:1;stop-color:#00bdf2"
         offset="1"
         id="stop2890" />
    </linearGradient>
    <linearGradient
       x1="0"
       y1="0"
       x2="1"
       y2="0"
       gradientUnits="userSpaceOnUse"
       gradientTransform="matrix(23,0,0,-23,890.95129,674.06396)"
       spreadMethod="pad"
       id="linearGradient2872">
      <stop
         style="stop-opacity:1;stop-color:#00aeef"
         offset="0"
         id="stop2868" />
      <stop
         style="stop-opacity:1;stop-color:#00bdf2"
         offset="1"
         id="stop2870" />
    </linearGradient>
    <linearGradient
       x1="0"
       y1="0"
       x2="1"
       y2="0"
       gradientUnits="userSpaceOnUse"
       gradientTransform="matrix(18,0,0,-18,907.45129,682.06396)"
       spreadMethod="pad"
       id="linearGradient2852">
      <stop
         style="stop-opacity:1;stop-color:#00aeef"
         offset="0"
         id="stop2848" />
      <stop
         style="stop-opacity:1;stop-color:#00bdf2"
         offset="1"
         id="stop2850" />
    </linearGradient>
    <linearGradient
       x1="0"
       y1="0"
       x2="1"
       y2="0"
       gradientUnits="userSpaceOnUse"
       gradientTransform="matrix(13,0,0,-13,890.95129,682.06396)"
       spreadMethod="pad"
       id="linearGradient2832">
      <stop
         style="stop-opacity:1;stop-color:#00aeef"
         offset="0"
         id="stop2828" />
      <stop
         style="stop-opacity:1;stop-color:#00bdf2"
         offset="1"
         id="stop2830" />
    </linearGradient>
    <clipPath
       clipPathUnits="userSpaceOnUse"
       id="clipPath2810">
      <path
         d="M 0,943.388 H 1828.656 V 0 H 0 Z"
         id="path2808"
         inkscape:connector-curvature="0" />
    </clipPath>
    <linearGradient
       x1="0"
       y1="0"
       x2="1"
       y2="0"
       gradientUnits="userSpaceOnUse"
       gradientTransform="matrix(56.666687,0,0,-56.666687,881.82605,709.08081)"
       spreadMethod="pad"
       id="linearGradient2800">
      <stop
         style="stop-opacity:1;stop-color:#d0e8f8"
         offset="0"
         id="stop2796" />
      <stop
         style="stop-opacity:1;stop-color:#e2eef9"
         offset="1"
         id="stop2798" />
    </linearGradient>
    <linearGradient
       x1="0"
       y1="0"
       x2="1"
       y2="0"
       gradientUnits="userSpaceOnUse"
       gradientTransform="matrix(15.601304,15.601304,15.601304,-15.601304,925.50201,710.02399)"
       spreadMethod="pad"
       id="linearGradient2780">
      <stop
         style="stop-opacity:1;stop-color:#00aeef"
         offset="0"
         id="stop2776" />
      <stop
         style="stop-opacity:1;stop-color:#00bdf2"
         offset="1"
         id="stop2778" />
    </linearGradient>
    <clipPath
       clipPathUnits="userSpaceOnUse"
       id="clipPath3254-9-70">
      <path
         d="M 0,943.388 H 1828.656 V 0 H 0 Z"
         id="path3252-7-9"
         inkscape:connector-curvature="0" />
    </clipPath>
    <clipPath
       clipPathUnits="userSpaceOnUse"
       id="clipPath2810-7">
      <path
         d="M 0,943.388 H 1828.656 V 0 H 0 Z"
         id="path2808-0"
         inkscape:connector-curvature="0" />
    </clipPath>
    <clipPath
       clipPathUnits="userSpaceOnUse"
       id="clipPath3254-9-93">
      <path
         d="M 0,943.388 H 1828.656 V 0 H 0 Z"
         id="path3252-7-21"
         inkscape:connector-curvature="0" />
    </clipPath>
    <linearGradient
       inkscape:collect="always"
       xlink:href="#linearGradient3276"
       id="linearGradient5971"
       gradientUnits="userSpaceOnUse"
       gradientTransform="matrix(20.325035,20.325035,20.325035,-20.325035,314.87137,688.47217)"
       x1="0"
       y1="0"
       x2="1"
       y2="0"
       spreadMethod="pad" />
    <linearGradient
       inkscape:collect="always"
       xlink:href="#linearGradient3296"
       id="linearGradient5973"
       gradientUnits="userSpaceOnUse"
       gradientTransform="matrix(6.8876667,0,0,-6.8876667,283.76889,679.18317)"
       x1="0"
       y1="0"
       x2="1"
       y2="0"
       spreadMethod="pad" />
    <linearGradient
       inkscape:collect="always"
       xlink:href="#linearGradient3316"
       id="linearGradient5975"
       gradientUnits="userSpaceOnUse"
       gradientTransform="matrix(6.8876667,0,0,-6.8876667,299.88071,679.18317)"
       x1="0"
       y1="0"
       x2="1"
       y2="0"
       spreadMethod="pad" />
    <linearGradient
       inkscape:collect="always"
       xlink:href="#linearGradient3336"
       id="linearGradient5977"
       gradientUnits="userSpaceOnUse"
       gradientTransform="matrix(6.8876667,0,0,-6.8876667,315.99252,679.18317)"
       x1="0"
       y1="0"
       x2="1"
       y2="0"
       spreadMethod="pad" />
    <linearGradient
       inkscape:collect="always"
       xlink:href="#linearGradient3356"
       id="linearGradient5979"
       gradientUnits="userSpaceOnUse"
       gradientTransform="matrix(6.8876667,0,0,-6.8876667,288.76889,672.00311)"
       x1="0"
       y1="0"
       x2="1"
       y2="0"
       spreadMethod="pad" />
    <linearGradient
       inkscape:collect="always"
       xlink:href="#linearGradient3376"
       id="linearGradient5981"
       gradientUnits="userSpaceOnUse"
       gradientTransform="matrix(6.8876667,0,0,-6.8876667,305.3812,672.00311)"
       x1="0"
       y1="0"
       x2="1"
       y2="0"
       spreadMethod="pad" />
    <linearGradient
       inkscape:collect="always"
       xlink:href="#linearGradient3396"
       id="linearGradient5983"
       gradientUnits="userSpaceOnUse"
       gradientTransform="matrix(6.8876667,0,0,-6.8876667,321.99252,672.00311)"
       x1="0"
       y1="0"
       x2="1"
       y2="0"
       spreadMethod="pad" />
    <linearGradient
       x1="0"
       y1="0"
       x2="1"
       y2="0"
       gradientUnits="userSpaceOnUse"
       gradientTransform="matrix(2.9717422,2.9717422,2.9717422,-2.9717422,1039.1809,725.54553)"
       spreadMethod="pad"
       id="linearGradient1908">
      <stop
         style="stop-opacity:1;stop-color:#fdb727"
         offset="0"
         id="stop1904" />
      <stop
         style="stop-opacity:1;stop-color:#ffce22"
         offset="1"
         id="stop1906" />
    </linearGradient>
    <linearGradient
       x1="0"
       y1="0"
       x2="1"
       y2="0"
       gradientUnits="userSpaceOnUse"
       gradientTransform="matrix(3.6693649,3.6693649,3.6693649,-3.6693649,1094.0217,728.71637)"
       spreadMethod="pad"
       id="linearGradient1888">
      <stop
         style="stop-opacity:1;stop-color:#fdb727"
         offset="0"
         id="stop1884" />
      <stop
         style="stop-opacity:1;stop-color:#ffce22"
         offset="1"
         id="stop1886" />
    </linearGradient>
    <clipPath
       clipPathUnits="userSpaceOnUse"
       id="clipPath1866">
      <path
         d="M 0,943.388 H 1828.656 V 0 H 0 Z"
         id="path1864"
         inkscape:connector-curvature="0" />
    </clipPath>
    <linearGradient
       x1="0"
       y1="0"
       x2="1"
       y2="0"
       gradientUnits="userSpaceOnUse"
       gradientTransform="matrix(56.666687,0,0,-56.666687,1033.924,709.15155)"
       spreadMethod="pad"
       id="linearGradient1856">
      <stop
         style="stop-opacity:1;stop-color:#d0e8f8"
         offset="0"
         id="stop1852" />
      <stop
         style="stop-opacity:1;stop-color:#e2eef9"
         offset="1"
         id="stop1854" />
    </linearGradient>
    <linearGradient
       x1="0"
       y1="0"
       x2="1"
       y2="0"
       gradientUnits="userSpaceOnUse"
       gradientTransform="matrix(15.601304,15.601304,15.601304,-15.601304,1076.5402,711.65576)"
       spreadMethod="pad"
       id="linearGradient1836">
      <stop
         style="stop-opacity:1;stop-color:#00aeef"
         offset="0"
         id="stop1832" />
      <stop
         style="stop-opacity:1;stop-color:#00bdf2"
         offset="1"
         id="stop1834" />
    </linearGradient>
  </defs>
  <sodipodi:namedview
     id="base"
     pagecolor="#ffffff"
     bordercolor="#666666"
     borderopacity="1.0"
     inkscape:pageopacity="0.0"
     inkscape:pageshadow="2"
     inkscape:zoom="4.6617141"
     inkscape:cx="65.416671"
     inkscape:cy="116.84441"
     inkscape:document-units="mm"
     inkscape:current-layer="layer1"
     showgrid="false"
     inkscape:pagecheckerboard="true"
     inkscape:window-width="1080"
     inkscape:window-height="1857"
     inkscape:window-x="-8"
     inkscape:window-y="-8"
     inkscape:window-maximized="1" />
  <metadata
     id="metadata5">
    <rdf:RDF>
      <cc:Work
         rdf:about="">
        <dc:format>image/svg+xml</dc:format>
        <dc:type
           rdf:resource="http://purl.org/dc/dcmitype/StillImage" />
        <dc:title></dc:title>
      </cc:Work>
    </rdf:RDF>
  </metadata>
  <g
     inkscape:label="Layer 1"
     inkscape:groupmode="layer"
     id="layer1"
     transform="translate(63.173037,-175.29733)">
    <g
       transform="matrix(0.35277777,0,0,-0.35277777,-424.31645,437.04192)"
       id="g1820">
      <g
         id="g1822">
        <g
           id="g1828">
          <g
             id="g1830">
            <path
               d="m 1082.831,736.01 c -6.226,-1.787 -10.574,-7.557 -10.574,-14.031 v 0 c 0,-8.054 6.552,-14.606 14.607,-14.606 v 0 c 6.473,0 12.242,4.348 14.03,10.573 v 0 c 0.077,0.268 0,0.555 -0.194,0.753 v 0 c -0.196,0.196 -0.483,0.27 -0.752,0.194 v 0 c -1.196,-0.343 -2.411,-0.517 -3.61,-0.517 v 0 c -7.211,0 -13.076,5.867 -13.076,13.077 v 0 c 0,1.201 0.173,2.416 0.516,3.61 v 0 c 0.077,0.268 0,0.556 -0.194,0.752 v 0 c -0.146,0.145 -0.341,0.224 -0.542,0.224 v 0 c -0.07,0 -0.141,-0.009 -0.211,-0.029"
               style="fill:url(#linearGradient1836);stroke:none"
               id="path1838"
               inkscape:connector-curvature="0" />
          </g>
        </g>
      </g>
    </g>
    <g
       transform="matrix(0.35277777,0,0,-0.35277777,-424.31645,437.04192)"
       id="g1840">
      <g
         id="g1842">
        <g
           id="g1848">
          <g
             id="g1850">
            <path
               d="m 1047.375,717.323 c -0.085,0 -0.168,0.006 -0.253,0.006 v 0 c -7.289,0 -13.198,-5.91 -13.198,-13.199 v 0 c 0,-7.289 5.909,-13.198 13.198,-13.198 v 0 h 32.805 c 5.889,0 10.663,4.774 10.663,10.664 v 0 c 0,5.889 -4.774,10.664 -10.663,10.664 v 0 c -0.038,0 -0.073,-0.005 -0.11,-0.005 v 0 c -0.947,8.503 -8.157,15.116 -16.914,15.116 v 0 c -6.916,0 -12.864,-4.126 -15.528,-10.048"
               style="fill:url(#linearGradient1856);stroke:none"
               id="path1858"
               inkscape:connector-curvature="0" />
          </g>
        </g>
      </g>
    </g>
    <g
       transform="matrix(0.35277777,0,0,-0.35277777,-424.31645,437.04192)"
       id="g1860">
      <g
         id="g1862"
         clip-path="url(#clipPath1866)">
        <g
           id="g1868"
           transform="translate(1094.1442,690.9323)">
          <path
             d="m 0,0 c 3.698,0 6.696,2.998 6.696,6.696 0,3.699 -2.998,6.697 -6.696,6.697 -0.023,0 -0.045,-0.004 -0.068,-0.004 -0.596,5.34 -5.123,9.492 -10.622,9.492 -4.342,0 -8.078,-2.59 -9.751,-6.31 -0.053,10e-4 -0.105,0.004 -0.158,0.004 -4.577,0 -8.288,-3.71 -8.288,-8.287 0,-4.578 3.711,-8.288 8.288,-8.288"
             style="fill:#ffffff;fill-opacity:1;fill-rule:nonzero;stroke:none"
             id="path1870"
             inkscape:connector-curvature="0" />
        </g>
      </g>
    </g>
    <g
       transform="matrix(0.35277777,0,0,-0.35277777,-424.31645,437.04192)"
       id="g1872">
      <g
         id="g1874">
        <g
           id="g1880">
          <g
             id="g1882">
            <path
               d="m 1095.359,733.371 c -0.273,-1.004 -1.319,-2.05 -2.323,-2.323 v 0 c -1.005,-0.273 -1.005,-0.72 0,-0.994 v 0 c 1.004,-0.274 2.05,-1.319 2.323,-2.324 v 0 c 0.274,-1.004 0.721,-1.004 0.995,0 v 0 c 0.273,1.005 1.318,2.05 2.324,2.324 v 0 c 1.004,0.274 1.004,0.721 0,0.994 v 0 c -1.006,0.273 -2.051,1.319 -2.324,2.323 v 0 c -0.137,0.503 -0.317,0.754 -0.497,0.754 v 0 c -0.181,0 -0.361,-0.251 -0.498,-0.754"
               style="fill:url(#linearGradient1888);stroke:none"
               id="path1890"
               inkscape:connector-curvature="0" />
          </g>
        </g>
      </g>
    </g>
    <g
       transform="matrix(0.35277777,0,0,-0.35277777,-424.31645,437.04192)"
       id="g1892">
      <g
         id="g1894">
        <g
           id="g1900">
          <g
             id="g1902">
            <path
               d="m 1040.264,729.316 c -0.221,-0.814 -1.068,-1.661 -1.882,-1.882 v 0 c -0.813,-0.221 -0.813,-0.584 0,-0.805 v 0 c 0.814,-0.222 1.661,-1.068 1.882,-1.882 v 0 c 0.221,-0.814 0.584,-0.814 0.806,0 v 0 c 0.221,0.814 1.067,1.66 1.881,1.882 v 0 c 0.814,0.221 0.814,0.584 0,0.805 v 0 c -0.814,0.221 -1.66,1.068 -1.881,1.882 v 0 c -0.111,0.407 -0.257,0.61 -0.403,0.61 v 0 c -0.146,0 -0.292,-0.203 -0.403,-0.61"
               style="fill:url(#linearGradient1908);stroke:none"
               id="path1910"
               inkscape:connector-curvature="0" />
          </g>
        </g>
      </g>
    </g>
    <g
       inkscape:tile-y0="-203.02862"
       inkscape:tile-x0="-187.24688"
       style="opacity:0"
       id="use4415"
       transform="translate(124.07385,378.32596)">
      <rect
         style="opacity:0;fill:#a5c2d1;fill-opacity:1;stroke:none;stroke-width:2.43217826;stroke-miterlimit:4;stroke-dasharray:none;stroke-dashoffset:0;stroke-opacity:1;paint-order:markers stroke fill"
         id="rect5889"
         width="30"
         height="30"
         x="-187.24689"
         y="-203.02863" />
      <g
         transform="matrix(0.35277777,0,0,-0.35277777,-281.09034,58.715968)"
         id="g5897">
        <g
           id="g5895"
           clip-path="url(#clipPath3254-9-93)">
          <g
             id="g5893"
             transform="translate(322.1286,691.0299)">
            <path
               d="m 0,0 c 5.889,0 10.664,4.774 10.664,10.664 0,5.889 -4.775,10.664 -10.664,10.664 -0.037,0 -0.072,-0.006 -0.109,-0.006 -0.949,8.504 -8.158,15.116 -16.915,15.116 -6.915,0 -12.864,-4.125 -15.528,-10.048 -0.085,0.002 -0.168,0.006 -0.253,0.006 -7.289,0 -13.198,-5.909 -13.198,-13.198 C -46.003,5.909 -40.094,0 -32.805,0"
               style="fill:#ffffff;fill-opacity:1;fill-rule:nonzero;stroke:none"
               id="path5891"
               inkscape:connector-curvature="0" />
          </g>
        </g>
      </g>
      <g
         transform="matrix(0.35277777,0,0,-0.35277777,-281.09034,58.715968)"
         id="g5907">
        <g
           id="g5905">
          <g
             id="g5903">
            <g
               id="g5901">
              <path
                 d="m 315.904,707.602 c -0.052,0 -0.104,0.003 -0.157,0.003 v 0 c -4.577,0 -8.288,-3.711 -8.288,-8.288 v 0 c 0,-4.576 3.711,-8.287 8.288,-8.287 v 0 h 20.599 c 3.698,0 6.696,2.998 6.696,6.696 v 0 c 0,3.698 -2.998,6.697 -6.696,6.697 v 0 c -0.023,0 -0.046,-0.004 -0.068,-0.004 v 0 c -0.596,5.34 -5.123,9.492 -10.622,9.492 v 0 c -4.342,0 -8.078,-2.591 -9.752,-6.309"
                 style="fill:url(#linearGradient5971);stroke:none"
                 id="path5899"
                 inkscape:connector-curvature="0" />
            </g>
          </g>
        </g>
      </g>
      <g
         transform="matrix(0.35277777,0,0,-0.35277777,-281.09034,58.715968)"
         id="g5917">
        <g
           id="g5915">
          <g
             id="g5913">
            <g
               id="g5911">
              <path
                 d="m 286.924,682.682 -2.888,-4.999 c -0.551,-0.957 -0.224,-2.18 0.733,-2.732 v 0 c 0.316,-0.182 0.66,-0.269 0.998,-0.269 v 0 c 0.691,0 1.364,0.359 1.734,1.001 v 0 l 2.888,5 c 0.551,0.956 0.224,2.179 -0.733,2.732 v 0 c -0.316,0.182 -0.66,0.269 -0.999,0.269 v 0 c -0.692,0 -1.363,-0.36 -1.733,-1.002"
                 style="fill:url(#linearGradient5973);stroke:none"
                 id="path5909"
                 inkscape:connector-curvature="0" />
            </g>
          </g>
        </g>
      </g>
      <g
         transform="matrix(0.35277777,0,0,-0.35277777,-281.09034,58.715968)"
         id="g5927">
        <g
           id="g5925">
          <g
             id="g5923">
            <g
               id="g5921">
              <path
                 d="m 303.035,682.682 -2.887,-4.999 c -0.552,-0.957 -0.224,-2.18 0.733,-2.732 v 0 c 0.316,-0.182 0.659,-0.269 0.998,-0.269 v 0 c 0.691,0 1.363,0.359 1.734,1.001 v 0 l 2.887,5 c 0.552,0.956 0.224,2.179 -0.732,2.732 v 0 c -0.316,0.182 -0.66,0.269 -1,0.269 v 0 c -0.691,0 -1.362,-0.36 -1.733,-1.002"
                 style="fill:url(#linearGradient5975);stroke:none"
                 id="path5919"
                 inkscape:connector-curvature="0" />
            </g>
          </g>
        </g>
      </g>
      <g
         transform="matrix(0.35277777,0,0,-0.35277777,-281.09034,58.715968)"
         id="g5937">
        <g
           id="g5935">
          <g
             id="g5933">
            <g
               id="g5931">
              <path
                 d="m 319.147,682.682 -2.887,-4.999 c -0.552,-0.957 -0.224,-2.18 0.733,-2.732 v 0 c 0.316,-0.182 0.659,-0.269 0.998,-0.269 v 0 c 0.691,0 1.363,0.359 1.734,1.001 v 0 l 2.887,5 c 0.552,0.956 0.224,2.179 -0.732,2.732 v 0 c -0.316,0.182 -0.661,0.269 -1,0.269 v 0 c -0.691,0 -1.362,-0.36 -1.733,-1.002"
                 style="fill:url(#linearGradient5977);stroke:none"
                 id="path5929"
                 inkscape:connector-curvature="0" />
            </g>
          </g>
        </g>
      </g>
      <g
         transform="matrix(0.35277777,0,0,-0.35277777,-281.09034,58.715968)"
         id="g5947">
        <g
           id="g5945">
          <g
             id="g5943">
            <g
               id="g5941">
              <path
                 d="m 291.923,675.503 -2.886,-5 c -0.552,-0.956 -0.225,-2.18 0.732,-2.732 v 0 c 0.315,-0.182 0.659,-0.269 0.998,-0.269 v 0 c 0.692,0 1.363,0.359 1.735,1.001 v 0 l 2.886,5 c 0.552,0.957 0.225,2.18 -0.733,2.732 v 0 c -0.315,0.182 -0.659,0.269 -0.999,0.269 v 0 c -0.691,0 -1.362,-0.359 -1.733,-1.001"
                 style="fill:url(#linearGradient5979);stroke:none"
                 id="path5939"
                 inkscape:connector-curvature="0" />
            </g>
          </g>
        </g>
      </g>
      <g
         transform="matrix(0.35277777,0,0,-0.35277777,-281.09034,58.715968)"
         id="g5957">
        <g
           id="g5955">
          <g
             id="g5953">
            <g
               id="g5951">
              <path
                 d="m 308.536,675.503 -2.887,-5 c -0.552,-0.956 -0.224,-2.18 0.733,-2.732 v 0 c 0.315,-0.182 0.658,-0.269 0.998,-0.269 v 0 c 0.691,0 1.363,0.359 1.734,1.001 v 0 l 2.886,5 c 0.552,0.957 0.225,2.18 -0.731,2.732 v 0 c -0.317,0.182 -0.661,0.269 -1.001,0.269 v 0 c -0.691,0 -1.361,-0.359 -1.732,-1.001"
                 style="fill:url(#linearGradient5981);stroke:none"
                 id="path5949"
                 inkscape:connector-curvature="0" />
            </g>
          </g>
        </g>
      </g>
      <g
         transform="matrix(0.35277777,0,0,-0.35277777,-281.09034,58.715968)"
         id="g5967">
        <g
           id="g5965">
          <g
             id="g5963">
            <g
               id="g5961">
              <path
                 d="m 325.147,675.503 -2.887,-5 c -0.551,-0.956 -0.224,-2.18 0.733,-2.732 v 0 c 0.315,-0.182 0.659,-0.269 0.998,-0.269 v 0 c 0.691,0 1.363,0.359 1.734,1.001 v 0 l 2.887,5 c 0.551,0.957 0.225,2.18 -0.732,2.732 v 0 c -0.316,0.182 -0.661,0.269 -1,0.269 v 0 c -0.691,0 -1.362,-0.359 -1.733,-1.001"
                 style="fill:url(#linearGradient5983);stroke:none"
                 id="path5959"
                 inkscape:connector-curvature="0" />
            </g>
          </g>
        </g>
      </g>
    </g>
  </g>
</svg>
