<?xml version="1.0" encoding="UTF-8" standalone="no"?>
<svg
   xmlns:dc="http://purl.org/dc/elements/1.1/"
   xmlns:cc="http://creativecommons.org/ns#"
   xmlns:rdf="http://www.w3.org/1999/02/22-rdf-syntax-ns#"
   xmlns:svg="http://www.w3.org/2000/svg"
   xmlns="http://www.w3.org/2000/svg"
   xmlns:xlink="http://www.w3.org/1999/xlink"
   xmlns:sodipodi="http://sodipodi.sourceforge.net/DTD/sodipodi-0.dtd"
   xmlns:inkscape="http://www.inkscape.org/namespaces/inkscape"
   sodipodi:docname="day_overcast.svg"
   inkscape:version="1.0 (4035a4fb49, 2020-05-01)"
   id="svg8"
   version="1.1"
   viewBox="0 0 30 30"
   height="30mm"
   width="30mm">
  <defs
     id="defs2">
    <clipPath
       id="clipPath3254-9"
       clipPathUnits="userSpaceOnUse">
      <path
         inkscape:connector-curvature="0"
         id="path3252-7"
         d="M 0,943.388 H 1828.656 V 0 H 0 Z" />
    </clipPath>
    <linearGradient
       id="linearGradient3276"
       spreadMethod="pad"
       gradientTransform="matrix(20.325035,20.325035,20.325035,-20.325035,314.87137,688.47217)"
       gradientUnits="userSpaceOnUse"
       y2="0"
       x2="1"
       y1="0"
       x1="0">
      <stop
         id="stop3272"
         offset="0"
         style="stop-opacity:1;stop-color:#d0e8f8" />
      <stop
         id="stop3274"
         offset="1"
         style="stop-opacity:1;stop-color:#e2eef9" />
    </linearGradient>
    <linearGradient
       id="linearGradient3296"
       spreadMethod="pad"
       gradientTransform="matrix(6.8876667,0,0,-6.8876667,283.76889,679.18317)"
       gradientUnits="userSpaceOnUse"
       y2="0"
       x2="1"
       y1="0"
       x1="0">
      <stop
         id="stop3292"
         offset="0"
         style="stop-opacity:1;stop-color:#00aeef" />
      <stop
         id="stop3294"
         offset="1"
         style="stop-opacity:1;stop-color:#00bdf2" />
    </linearGradient>
    <linearGradient
       id="linearGradient3316"
       spreadMethod="pad"
       gradientTransform="matrix(6.8876667,0,0,-6.8876667,299.88071,679.18317)"
       gradientUnits="userSpaceOnUse"
       y2="0"
       x2="1"
       y1="0"
       x1="0">
      <stop
         id="stop3312"
         offset="0"
         style="stop-opacity:1;stop-color:#00aeef" />
      <stop
         id="stop3314"
         offset="1"
         style="stop-opacity:1;stop-color:#00bdf2" />
    </linearGradient>
    <linearGradient
       id="linearGradient3336"
       spreadMethod="pad"
       gradientTransform="matrix(6.8876667,0,0,-6.8876667,315.99252,679.18317)"
       gradientUnits="userSpaceOnUse"
       y2="0"
       x2="1"
       y1="0"
       x1="0">
      <stop
         id="stop3332"
         offset="0"
         style="stop-opacity:1;stop-color:#00aeef" />
      <stop
         id="stop3334"
         offset="1"
         style="stop-opacity:1;stop-color:#00bdf2" />
    </linearGradient>
    <linearGradient
       id="linearGradient3356"
       spreadMethod="pad"
       gradientTransform="matrix(6.8876667,0,0,-6.8876667,288.76889,672.00311)"
       gradientUnits="userSpaceOnUse"
       y2="0"
       x2="1"
       y1="0"
       x1="0">
      <stop
         id="stop3352"
         offset="0"
         style="stop-opacity:1;stop-color:#00aeef" />
      <stop
         id="stop3354"
         offset="1"
         style="stop-opacity:1;stop-color:#00bdf2" />
    </linearGradient>
    <linearGradient
       id="linearGradient3376"
       spreadMethod="pad"
       gradientTransform="matrix(6.8876667,0,0,-6.8876667,305.3812,672.00311)"
       gradientUnits="userSpaceOnUse"
       y2="0"
       x2="1"
       y1="0"
       x1="0">
      <stop
         id="stop3372"
         offset="0"
         style="stop-opacity:1;stop-color:#00aeef" />
      <stop
         id="stop3374"
         offset="1"
         style="stop-opacity:1;stop-color:#00bdf2" />
    </linearGradient>
    <linearGradient
       id="linearGradient3396"
       spreadMethod="pad"
       gradientTransform="matrix(6.8876667,0,0,-6.8876667,321.99252,672.00311)"
       gradientUnits="userSpaceOnUse"
       y2="0"
       x2="1"
       y1="0"
       x1="0">
      <stop
         id="stop3392"
         offset="0"
         style="stop-opacity:1;stop-color:#00aeef" />
      <stop
         id="stop3394"
         offset="1"
         style="stop-opacity:1;stop-color:#00bdf2" />
    </linearGradient>
    <clipPath
       id="clipPath1818"
       clipPathUnits="userSpaceOnUse">
      <path
         inkscape:connector-curvature="0"
         id="path1816"
         d="M 0,943.388 H 1828.656 V 0 H 0 Z" />
    </clipPath>
    <clipPath
       id="clipPath3254-9-5"
       clipPathUnits="userSpaceOnUse">
      <path
         inkscape:connector-curvature="0"
         id="path3252-7-4"
         d="M 0,943.388 H 1828.656 V 0 H 0 Z" />
    </clipPath>
    <linearGradient
       spreadMethod="pad"
       y2="0"
       x2="1"
       y1="0"
       x1="0"
       gradientTransform="matrix(6.8876667,0,0,-6.8876667,299.88071,679.18317)"
       gradientUnits="userSpaceOnUse"
       id="linearGradient4823"
       xlink:href="#linearGradient3316"
       inkscape:collect="always" />
    <linearGradient
       spreadMethod="pad"
       y2="0"
       x2="1"
       y1="0"
       x1="0"
       gradientTransform="matrix(6.8876667,0,0,-6.8876667,288.76889,672.00311)"
       gradientUnits="userSpaceOnUse"
       id="linearGradient4827"
       xlink:href="#linearGradient3356"
       inkscape:collect="always" />
    <linearGradient
       spreadMethod="pad"
       y2="0"
       x2="1"
       y1="0"
       x1="0"
       gradientTransform="matrix(6.8876667,0,0,-6.8876667,305.3812,672.00311)"
       gradientUnits="userSpaceOnUse"
       id="linearGradient4829"
       xlink:href="#linearGradient3376"
       inkscape:collect="always" />
    <linearGradient
       spreadMethod="pad"
       y2="0"
       x2="1"
       y1="0"
       x1="0"
       gradientTransform="matrix(6.8876667,0,0,-6.8876667,321.99252,672.00311)"
       gradientUnits="userSpaceOnUse"
       id="linearGradient4831"
       xlink:href="#linearGradient3396"
       inkscape:collect="always" />
    <linearGradient
       id="linearGradient2168"
       spreadMethod="pad"
       gradientTransform="matrix(10.499464,0,0,-10.499464,442.10126,676.15814)"
       gradientUnits="userSpaceOnUse"
       y2="0"
       x2="1"
       y1="0"
       x1="0">
      <stop
         id="stop2164"
         offset="0"
         style="stop-opacity:1;stop-color:#00aeef" />
      <stop
         id="stop2166"
         offset="1"
         style="stop-opacity:1;stop-color:#00bdf2" />
    </linearGradient>
    <linearGradient
       id="linearGradient2148"
       spreadMethod="pad"
       gradientTransform="matrix(10.499464,0,0,-10.499464,431.46698,676.15814)"
       gradientUnits="userSpaceOnUse"
       y2="0"
       x2="1"
       y1="0"
       x1="0">
      <stop
         id="stop2144"
         offset="0"
         style="stop-opacity:1;stop-color:#00aeef" />
      <stop
         id="stop2146"
         offset="1"
         style="stop-opacity:1;stop-color:#00bdf2" />
    </linearGradient>
    <clipPath
       id="clipPath2126"
       clipPathUnits="userSpaceOnUse">
      <path
         inkscape:connector-curvature="0"
         id="path2124"
         d="M 0,943.388 H 1828.656 V 0 H 0 Z" />
    </clipPath>
    <linearGradient
       id="linearGradient2116"
       spreadMethod="pad"
       gradientTransform="matrix(32.367748,32.367748,32.367748,-32.367748,439.4563,686.9718)"
       gradientUnits="userSpaceOnUse"
       y2="0"
       x2="1"
       y1="0"
       x1="0">
      <stop
         id="stop2112"
         offset="0"
         style="stop-opacity:1;stop-color:#d0e8f8" />
      <stop
         id="stop2114"
         offset="1"
         style="stop-opacity:1;stop-color:#e2eef9" />
    </linearGradient>
    <linearGradient
       id="linearGradient2096"
       spreadMethod="pad"
       gradientTransform="matrix(15.601304,15.601304,15.601304,-15.601304,470.26816,712.14948)"
       gradientUnits="userSpaceOnUse"
       y2="0"
       x2="1"
       y1="0"
       x1="0">
      <stop
         id="stop2092"
         offset="0"
         style="stop-opacity:1;stop-color:#00aeef" />
      <stop
         id="stop2094"
         offset="1"
         style="stop-opacity:1;stop-color:#00bdf2" />
    </linearGradient>
    <linearGradient
       id="linearGradient2076"
       spreadMethod="pad"
       gradientTransform="matrix(19.207622,19.207622,19.207622,-19.207622,456.44067,672.76135)"
       gradientUnits="userSpaceOnUse"
       y2="0"
       x2="1"
       y1="0"
       x1="0">
      <stop
         id="stop2072"
         offset="0"
         style="stop-opacity:1;stop-color:#fdb727" />
      <stop
         id="stop2074"
         offset="1"
         style="stop-opacity:1;stop-color:#ffce22" />
    </linearGradient>
  </defs>
  <sodipodi:namedview
     inkscape:document-rotation="0"
     inkscape:window-maximized="1"
     inkscape:window-y="-9"
     inkscape:window-x="-9"
     inkscape:window-height="996"
     inkscape:window-width="1920"
     inkscape:pagecheckerboard="true"
     showgrid="false"
     inkscape:current-layer="layer1"
     inkscape:document-units="mm"
     inkscape:cy="57.436997"
     inkscape:cx="57.575173"
     inkscape:zoom="6.5926592"
     inkscape:pageshadow="2"
     inkscape:pageopacity="0.0"
     borderopacity="1.0"
     bordercolor="#666666"
     pagecolor="#ffffff"
     id="base" />
  <metadata
     id="metadata5">
    <rdf:RDF>
      <cc:Work
         rdf:about="">
        <dc:format>image/svg+xml</dc:format>
        <dc:type
           rdf:resource="http://purl.org/dc/dcmitype/StillImage" />
        <dc:title />
      </cc:Work>
    </rdf:RDF>
  </metadata>
  <g
     transform="translate(60.229727,-160.66215)"
     id="layer1"
     inkscape:groupmode="layer"
     inkscape:label="Layer 1">
    <g
       id="g2100"
       transform="matrix(0.35277777,0,0,-0.35277777,-205.94567,422.40674)">
      <g
         id="g2102">
        <g
           id="g2108">
          <g
             id="g2110">
            <path
               inkscape:connector-curvature="0"
               id="path2118"
               style="fill:url(#linearGradient2116);stroke:none"
               d="m 441.103,717.435 c -0.085,0.002 -0.169,0.006 -0.252,0.006 v 0 c -7.29,0 -13.199,-5.909 -13.199,-13.197 v 0 c 0,-7.29 5.909,-13.199 13.199,-13.199 v 0 h 32.804 c 5.889,0 10.664,4.774 10.664,10.663 v 0 c 0,5.89 -4.775,10.664 -10.664,10.664 v 0 c -0.037,0 -0.072,-0.005 -0.109,-0.005 v 0 c -0.949,8.503 -8.158,15.116 -16.915,15.116 v 0 c -6.916,0 -12.864,-4.125 -15.528,-10.048" />
          </g>
        </g>
      </g>
    </g>
    <g
       id="g2152"
       transform="matrix(0.35277777,0,0,-0.35277777,-207.53318,422.40674)" />
    <g
       transform="translate(127.01716,363.69078)"
       id="use4391"
       style="opacity:0"
       inkscape:tile-x0="-187.24688"
       inkscape:tile-y0="-203.02862">
      <rect
         y="-203.02863"
         x="-187.24689"
         height="30"
         width="30"
         id="rect4737"
         style="opacity:0;fill:#a5c2d1;fill-opacity:1;stroke:none;stroke-width:2.43217826;stroke-miterlimit:4;stroke-dasharray:none;stroke-dashoffset:0;stroke-opacity:1;paint-order:markers stroke fill" />
      <g
         id="g4775"
         transform="matrix(0.35277777,0,0,-0.35277777,-281.09034,58.715968)">
        <g
           id="g4773">
          <g
             id="g4771">
            <g
               id="g4769">
              <path
                 inkscape:connector-curvature="0"
                 id="path4767"
                 style="fill:url(#linearGradient4823);stroke:none"
                 d="m 303.035,682.682 -2.887,-4.999 c -0.552,-0.957 -0.224,-2.18 0.733,-2.732 v 0 c 0.316,-0.182 0.659,-0.269 0.998,-0.269 v 0 c 0.691,0 1.363,0.359 1.734,1.001 v 0 l 2.887,5 c 0.552,0.956 0.224,2.179 -0.732,2.732 v 0 c -0.316,0.182 -0.66,0.269 -1,0.269 v 0 c -0.691,0 -1.362,-0.36 -1.733,-1.002" />
            </g>
          </g>
        </g>
      </g>
      <g
         id="g4795"
         transform="matrix(0.35277777,0,0,-0.35277777,-281.09034,58.715968)">
        <g
           id="g4793">
          <g
             id="g4791">
            <g
               id="g4789">
              <path
                 inkscape:connector-curvature="0"
                 id="path4787"
                 style="fill:url(#linearGradient4827);stroke:none"
                 d="m 291.923,675.503 -2.886,-5 c -0.552,-0.956 -0.225,-2.18 0.732,-2.732 v 0 c 0.315,-0.182 0.659,-0.269 0.998,-0.269 v 0 c 0.692,0 1.363,0.359 1.735,1.001 v 0 l 2.886,5 c 0.552,0.957 0.225,2.18 -0.733,2.732 v 0 c -0.315,0.182 -0.659,0.269 -0.999,0.269 v 0 c -0.691,0 -1.362,-0.359 -1.733,-1.001" />
            </g>
          </g>
        </g>
      </g>
      <g
         id="g4805"
         transform="matrix(0.35277777,0,0,-0.35277777,-281.09034,58.715968)">
        <g
           id="g4803">
          <g
             id="g4801">
            <g
               id="g4799">
              <path
                 inkscape:connector-curvature="0"
                 id="path4797"
                 style="fill:url(#linearGradient4829);stroke:none"
                 d="m 308.536,675.503 -2.887,-5 c -0.552,-0.956 -0.224,-2.18 0.733,-2.732 v 0 c 0.315,-0.182 0.658,-0.269 0.998,-0.269 v 0 c 0.691,0 1.363,0.359 1.734,1.001 v 0 l 2.886,5 c 0.552,0.957 0.225,2.18 -0.731,2.732 v 0 c -0.317,0.182 -0.661,0.269 -1.001,0.269 v 0 c -0.691,0 -1.361,-0.359 -1.732,-1.001" />
            </g>
          </g>
        </g>
      </g>
      <g
         id="g4815"
         transform="matrix(0.35277777,0,0,-0.35277777,-281.09034,58.715968)">
        <g
           id="g4813">
          <g
             id="g4811">
            <g
               id="g4809">
              <path
                 inkscape:connector-curvature="0"
                 id="path4807"
                 style="fill:url(#linearGradient4831);stroke:none"
                 d="m 325.147,675.503 -2.887,-5 c -0.551,-0.956 -0.224,-2.18 0.733,-2.732 v 0 c 0.315,-0.182 0.659,-0.269 0.998,-0.269 v 0 c 0.691,0 1.363,0.359 1.734,1.001 v 0 l 2.887,5 c 0.551,0.957 0.225,2.18 -0.732,2.732 v 0 c -0.316,0.182 -0.661,0.269 -1,0.269 v 0 c -0.691,0 -1.362,-0.359 -1.733,-1.001" />
            </g>
          </g>
        </g>
      </g>
    </g>
  </g>
</svg>
