<?xml version="1.0" encoding="UTF-8" standalone="no"?>
<svg
   xmlns:dc="http://purl.org/dc/elements/1.1/"
   xmlns:cc="http://creativecommons.org/ns#"
   xmlns:rdf="http://www.w3.org/1999/02/22-rdf-syntax-ns#"
   xmlns:svg="http://www.w3.org/2000/svg"
   xmlns="http://www.w3.org/2000/svg"
   xmlns:xlink="http://www.w3.org/1999/xlink"
   xmlns:sodipodi="http://sodipodi.sourceforge.net/DTD/sodipodi-0.dtd"
   xmlns:inkscape="http://www.inkscape.org/namespaces/inkscape"
   sodipodi:docname="day_light_rain.svg"
   inkscape:version="1.0 (4035a4fb49, 2020-05-01)"
   id="svg8"
   version="1.1"
   viewBox="0 0 30 30"
   height="30mm"
   width="30mm">
  <defs
     id="defs2">
    <clipPath
       id="clipPath3254-9"
       clipPathUnits="userSpaceOnUse">
      <path
         inkscape:connector-curvature="0"
         id="path3252-7"
         d="M 0,943.388 H 1828.656 V 0 H 0 Z" />
    </clipPath>
    <linearGradient
       id="linearGradient3276"
       spreadMethod="pad"
       gradientTransform="matrix(20.325035,20.325035,20.325035,-20.325035,314.87137,688.47217)"
       gradientUnits="userSpaceOnUse"
       y2="0"
       x2="1"
       y1="0"
       x1="0">
      <stop
         id="stop3272"
         offset="0"
         style="stop-opacity:1;stop-color:#d0e8f8" />
      <stop
         id="stop3274"
         offset="1"
         style="stop-opacity:1;stop-color:#e2eef9" />
    </linearGradient>
    <linearGradient
       id="linearGradient3296"
       spreadMethod="pad"
       gradientTransform="matrix(6.8876667,0,0,-6.8876667,283.76889,679.18317)"
       gradientUnits="userSpaceOnUse"
       y2="0"
       x2="1"
       y1="0"
       x1="0">
      <stop
         id="stop3292"
         offset="0"
         style="stop-opacity:1;stop-color:#00aeef" />
      <stop
         id="stop3294"
         offset="1"
         style="stop-opacity:1;stop-color:#00bdf2" />
    </linearGradient>
    <linearGradient
       id="linearGradient3316"
       spreadMethod="pad"
       gradientTransform="matrix(6.8876667,0,0,-6.8876667,299.88071,679.18317)"
       gradientUnits="userSpaceOnUse"
       y2="0"
       x2="1"
       y1="0"
       x1="0">
      <stop
         id="stop3312"
         offset="0"
         style="stop-opacity:1;stop-color:#00aeef" />
      <stop
         id="stop3314"
         offset="1"
         style="stop-opacity:1;stop-color:#00bdf2" />
    </linearGradient>
    <linearGradient
       id="linearGradient3336"
       spreadMethod="pad"
       gradientTransform="matrix(6.8876667,0,0,-6.8876667,315.99252,679.18317)"
       gradientUnits="userSpaceOnUse"
       y2="0"
       x2="1"
       y1="0"
       x1="0">
      <stop
         id="stop3332"
         offset="0"
         style="stop-opacity:1;stop-color:#00aeef" />
      <stop
         id="stop3334"
         offset="1"
         style="stop-opacity:1;stop-color:#00bdf2" />
    </linearGradient>
    <linearGradient
       id="linearGradient3356"
       spreadMethod="pad"
       gradientTransform="matrix(6.8876667,0,0,-6.8876667,288.76889,672.00311)"
       gradientUnits="userSpaceOnUse"
       y2="0"
       x2="1"
       y1="0"
       x1="0">
      <stop
         id="stop3352"
         offset="0"
         style="stop-opacity:1;stop-color:#00aeef" />
      <stop
         id="stop3354"
         offset="1"
         style="stop-opacity:1;stop-color:#00bdf2" />
    </linearGradient>
    <linearGradient
       id="linearGradient3376"
       spreadMethod="pad"
       gradientTransform="matrix(6.8876667,0,0,-6.8876667,305.3812,672.00311)"
       gradientUnits="userSpaceOnUse"
       y2="0"
       x2="1"
       y1="0"
       x1="0">
      <stop
         id="stop3372"
         offset="0"
         style="stop-opacity:1;stop-color:#00aeef" />
      <stop
         id="stop3374"
         offset="1"
         style="stop-opacity:1;stop-color:#00bdf2" />
    </linearGradient>
    <linearGradient
       id="linearGradient3396"
       spreadMethod="pad"
       gradientTransform="matrix(6.8876667,0,0,-6.8876667,321.99252,672.00311)"
       gradientUnits="userSpaceOnUse"
       y2="0"
       x2="1"
       y1="0"
       x1="0">
      <stop
         id="stop3392"
         offset="0"
         style="stop-opacity:1;stop-color:#00aeef" />
      <stop
         id="stop3394"
         offset="1"
         style="stop-opacity:1;stop-color:#00bdf2" />
    </linearGradient>
    <clipPath
       id="clipPath1818"
       clipPathUnits="userSpaceOnUse">
      <path
         inkscape:connector-curvature="0"
         id="path1816"
         d="M 0,943.388 H 1828.656 V 0 H 0 Z" />
    </clipPath>
    <clipPath
       id="clipPath3254-9-5"
       clipPathUnits="userSpaceOnUse">
      <path
         inkscape:connector-curvature="0"
         id="path3252-7-4"
         d="M 0,943.388 H 1828.656 V 0 H 0 Z" />
    </clipPath>
    <linearGradient
       id="linearGradient2168"
       spreadMethod="pad"
       gradientTransform="matrix(10.499464,0,0,-10.499464,442.10126,676.15814)"
       gradientUnits="userSpaceOnUse"
       y2="0"
       x2="1"
       y1="0"
       x1="0">
      <stop
         id="stop2164"
         offset="0"
         style="stop-opacity:1;stop-color:#00aeef" />
      <stop
         id="stop2166"
         offset="1"
         style="stop-opacity:1;stop-color:#00bdf2" />
    </linearGradient>
    <linearGradient
       id="linearGradient2148"
       spreadMethod="pad"
       gradientTransform="matrix(10.499464,0,0,-10.499464,431.46698,676.15814)"
       gradientUnits="userSpaceOnUse"
       y2="0"
       x2="1"
       y1="0"
       x1="0">
      <stop
         id="stop2144"
         offset="0"
         style="stop-opacity:1;stop-color:#00aeef" />
      <stop
         id="stop2146"
         offset="1"
         style="stop-opacity:1;stop-color:#00bdf2" />
    </linearGradient>
    <clipPath
       id="clipPath2126"
       clipPathUnits="userSpaceOnUse">
      <path
         inkscape:connector-curvature="0"
         id="path2124"
         d="M 0,943.388 H 1828.656 V 0 H 0 Z" />
    </clipPath>
    <linearGradient
       id="linearGradient2116"
       spreadMethod="pad"
       gradientTransform="matrix(32.367748,32.367748,32.367748,-32.367748,439.4563,686.9718)"
       gradientUnits="userSpaceOnUse"
       y2="0"
       x2="1"
       y1="0"
       x1="0">
      <stop
         id="stop2112"
         offset="0"
         style="stop-opacity:1;stop-color:#d0e8f8" />
      <stop
         id="stop2114"
         offset="1"
         style="stop-opacity:1;stop-color:#e2eef9" />
    </linearGradient>
    <linearGradient
       id="linearGradient2096"
       spreadMethod="pad"
       gradientTransform="matrix(15.601304,15.601304,15.601304,-15.601304,470.26816,712.14948)"
       gradientUnits="userSpaceOnUse"
       y2="0"
       x2="1"
       y1="0"
       x1="0">
      <stop
         id="stop2092"
         offset="0"
         style="stop-opacity:1;stop-color:#00aeef" />
      <stop
         id="stop2094"
         offset="1"
         style="stop-opacity:1;stop-color:#00bdf2" />
    </linearGradient>
    <linearGradient
       id="linearGradient2076"
       spreadMethod="pad"
       gradientTransform="matrix(19.207622,19.207622,19.207622,-19.207622,456.44067,672.76135)"
       gradientUnits="userSpaceOnUse"
       y2="0"
       x2="1"
       y1="0"
       x1="0">
      <stop
         id="stop2072"
         offset="0"
         style="stop-opacity:1;stop-color:#fdb727" />
      <stop
         id="stop2074"
         offset="1"
         style="stop-opacity:1;stop-color:#ffce22" />
    </linearGradient>
    <clipPath
       id="clipPath3254-9-7"
       clipPathUnits="userSpaceOnUse">
      <path
         inkscape:connector-curvature="0"
         id="path3252-7-2"
         d="M 0,943.388 H 1828.656 V 0 H 0 Z" />
    </clipPath>
    <linearGradient
       id="linearGradient2260"
       spreadMethod="pad"
       gradientTransform="matrix(10.499464,0,0,-10.499464,593.71094,675.68274)"
       gradientUnits="userSpaceOnUse"
       y2="0"
       x2="1"
       y1="0"
       x1="0">
      <stop
         id="stop2256"
         offset="0"
         style="stop-opacity:1;stop-color:#00aeef" />
      <stop
         id="stop2258"
         offset="1"
         style="stop-opacity:1;stop-color:#00bdf2" />
    </linearGradient>
    <linearGradient
       id="linearGradient2240"
       spreadMethod="pad"
       gradientTransform="matrix(10.499464,0,0,-10.499464,583.07666,675.68274)"
       gradientUnits="userSpaceOnUse"
       y2="0"
       x2="1"
       y1="0"
       x1="0">
      <stop
         id="stop2236"
         offset="0"
         style="stop-opacity:1;stop-color:#00aeef" />
      <stop
         id="stop2238"
         offset="1"
         style="stop-opacity:1;stop-color:#00bdf2" />
    </linearGradient>
    <linearGradient
       id="linearGradient2220"
       spreadMethod="pad"
       gradientTransform="matrix(20.325035,20.325035,20.325035,-20.325035,618.00739,688.01172)"
       gradientUnits="userSpaceOnUse"
       y2="0"
       x2="1"
       y1="0"
       x1="0">
      <stop
         id="stop2216"
         offset="0"
         style="stop-opacity:1;stop-color:#d0e8f8" />
      <stop
         id="stop2218"
         offset="1"
         style="stop-opacity:1;stop-color:#e2eef9" />
    </linearGradient>
    <clipPath
       id="clipPath2198"
       clipPathUnits="userSpaceOnUse">
      <path
         inkscape:connector-curvature="0"
         id="path2196"
         d="M 0,943.388 H 1828.656 V 0 H 0 Z" />
    </clipPath>
    <linearGradient
       id="linearGradient2188"
       spreadMethod="pad"
       gradientTransform="matrix(19.207622,19.207622,19.207622,-19.207622,608.05035,672.28589)"
       gradientUnits="userSpaceOnUse"
       y2="0"
       x2="1"
       y1="0"
       x1="0">
      <stop
         id="stop2184"
         offset="0"
         style="stop-opacity:1;stop-color:#fdb727" />
      <stop
         id="stop2186"
         offset="1"
         style="stop-opacity:1;stop-color:#ffce22" />
    </linearGradient>
    <clipPath
       id="clipPath3254-9-6"
       clipPathUnits="userSpaceOnUse">
      <path
         inkscape:connector-curvature="0"
         id="path3252-7-42"
         d="M 0,943.388 H 1828.656 V 0 H 0 Z" />
    </clipPath>
    <clipPath
       id="clipPath2198-4"
       clipPathUnits="userSpaceOnUse">
      <path
         inkscape:connector-curvature="0"
         id="path2196-2"
         d="M 0,943.388 H 1828.656 V 0 H 0 Z" />
    </clipPath>
    <clipPath
       id="clipPath3254-9-9"
       clipPathUnits="userSpaceOnUse">
      <path
         inkscape:connector-curvature="0"
         id="path3252-7-5"
         d="M 0,943.388 H 1828.656 V 0 H 0 Z" />
    </clipPath>
    <linearGradient
       id="linearGradient888"
       spreadMethod="pad"
       gradientTransform="matrix(4,0,0,-4,770.01739,673.14679)"
       gradientUnits="userSpaceOnUse"
       y2="0"
       x2="1"
       y1="0"
       x1="0">
      <stop
         id="stop884"
         offset="0"
         style="stop-opacity:1;stop-color:#d0e8f8" />
      <stop
         id="stop886"
         offset="1"
         style="stop-opacity:1;stop-color:#e2eef9" />
    </linearGradient>
    <linearGradient
       id="linearGradient868"
       spreadMethod="pad"
       gradientTransform="matrix(4,0,0,-4,760.01739,673.14679)"
       gradientUnits="userSpaceOnUse"
       y2="0"
       x2="1"
       y1="0"
       x1="0">
      <stop
         id="stop864"
         offset="0"
         style="stop-opacity:1;stop-color:#d0e8f8" />
      <stop
         id="stop866"
         offset="1"
         style="stop-opacity:1;stop-color:#e2eef9" />
    </linearGradient>
    <linearGradient
       id="linearGradient848"
       spreadMethod="pad"
       gradientTransform="matrix(4,0,0,-4,755.01739,664.64679)"
       gradientUnits="userSpaceOnUse"
       y2="0"
       x2="1"
       y1="0"
       x1="0">
      <stop
         id="stop844"
         offset="0"
         style="stop-opacity:1;stop-color:#d0e8f8" />
      <stop
         id="stop846"
         offset="1"
         style="stop-opacity:1;stop-color:#e2eef9" />
    </linearGradient>
    <linearGradient
       id="linearGradient828"
       spreadMethod="pad"
       gradientTransform="matrix(4,0,0,-4,774.01739,681.25427)"
       gradientUnits="userSpaceOnUse"
       y2="0"
       x2="1"
       y1="0"
       x1="0">
      <stop
         id="stop824"
         offset="0"
         style="stop-opacity:1;stop-color:#d0e8f8" />
      <stop
         id="stop826"
         offset="1"
         style="stop-opacity:1;stop-color:#e2eef9" />
    </linearGradient>
    <linearGradient
       id="linearGradient808"
       spreadMethod="pad"
       gradientTransform="matrix(4,0,0,-4,764.01739,681.25427)"
       gradientUnits="userSpaceOnUse"
       y2="0"
       x2="1"
       y1="0"
       x1="0">
      <stop
         id="stop804"
         offset="0"
         style="stop-opacity:1;stop-color:#d0e8f8" />
      <stop
         id="stop806"
         offset="1"
         style="stop-opacity:1;stop-color:#e2eef9" />
    </linearGradient>
    <linearGradient
       id="linearGradient788"
       spreadMethod="pad"
       gradientTransform="matrix(14.000948,0,0,-14.000948,742.78418,672.59326)"
       gradientUnits="userSpaceOnUse"
       y2="0"
       x2="1"
       y1="0"
       x1="0">
      <stop
         id="stop784"
         offset="0"
         style="stop-opacity:1;stop-color:#00aeef" />
      <stop
         id="stop786"
         offset="1"
         style="stop-opacity:1;stop-color:#00bdf2" />
    </linearGradient>
    <linearGradient
       id="linearGradient768"
       spreadMethod="pad"
       gradientTransform="matrix(10.499971,0,0,-10.499971,735.64453,675.62524)"
       gradientUnits="userSpaceOnUse"
       y2="0"
       x2="1"
       y1="0"
       x1="0">
      <stop
         id="stop764"
         offset="0"
         style="stop-opacity:1;stop-color:#00aeef" />
      <stop
         id="stop766"
         offset="1"
         style="stop-opacity:1;stop-color:#00bdf2" />
    </linearGradient>
    <linearGradient
       id="linearGradient748"
       spreadMethod="pad"
       gradientTransform="matrix(20.325035,20.325035,20.325035,-20.325035,769.57538,688.04236)"
       gradientUnits="userSpaceOnUse"
       y2="0"
       x2="1"
       y1="0"
       x1="0">
      <stop
         id="stop744"
         offset="0"
         style="stop-opacity:1;stop-color:#d0e8f8" />
      <stop
         id="stop746"
         offset="1"
         style="stop-opacity:1;stop-color:#e2eef9" />
    </linearGradient>
    <clipPath
       id="clipPath3254-9-8"
       clipPathUnits="userSpaceOnUse">
      <path
         inkscape:connector-curvature="0"
         id="path3252-7-3"
         d="M 0,943.388 H 1828.656 V 0 H 0 Z" />
    </clipPath>
    <linearGradient
       id="linearGradient2892"
       spreadMethod="pad"
       gradientTransform="matrix(18,0,0,-18,917.45129,674.06396)"
       gradientUnits="userSpaceOnUse"
       y2="0"
       x2="1"
       y1="0"
       x1="0">
      <stop
         id="stop2888"
         offset="0"
         style="stop-opacity:1;stop-color:#00aeef" />
      <stop
         id="stop2890"
         offset="1"
         style="stop-opacity:1;stop-color:#00bdf2" />
    </linearGradient>
    <linearGradient
       id="linearGradient2872"
       spreadMethod="pad"
       gradientTransform="matrix(23,0,0,-23,890.95129,674.06396)"
       gradientUnits="userSpaceOnUse"
       y2="0"
       x2="1"
       y1="0"
       x1="0">
      <stop
         id="stop2868"
         offset="0"
         style="stop-opacity:1;stop-color:#00aeef" />
      <stop
         id="stop2870"
         offset="1"
         style="stop-opacity:1;stop-color:#00bdf2" />
    </linearGradient>
    <linearGradient
       id="linearGradient2852"
       spreadMethod="pad"
       gradientTransform="matrix(18,0,0,-18,907.45129,682.06396)"
       gradientUnits="userSpaceOnUse"
       y2="0"
       x2="1"
       y1="0"
       x1="0">
      <stop
         id="stop2848"
         offset="0"
         style="stop-opacity:1;stop-color:#00aeef" />
      <stop
         id="stop2850"
         offset="1"
         style="stop-opacity:1;stop-color:#00bdf2" />
    </linearGradient>
    <linearGradient
       id="linearGradient2832"
       spreadMethod="pad"
       gradientTransform="matrix(13,0,0,-13,890.95129,682.06396)"
       gradientUnits="userSpaceOnUse"
       y2="0"
       x2="1"
       y1="0"
       x1="0">
      <stop
         id="stop2828"
         offset="0"
         style="stop-opacity:1;stop-color:#00aeef" />
      <stop
         id="stop2830"
         offset="1"
         style="stop-opacity:1;stop-color:#00bdf2" />
    </linearGradient>
    <clipPath
       id="clipPath2810"
       clipPathUnits="userSpaceOnUse">
      <path
         inkscape:connector-curvature="0"
         id="path2808"
         d="M 0,943.388 H 1828.656 V 0 H 0 Z" />
    </clipPath>
    <linearGradient
       id="linearGradient2800"
       spreadMethod="pad"
       gradientTransform="matrix(56.666687,0,0,-56.666687,881.82605,709.08081)"
       gradientUnits="userSpaceOnUse"
       y2="0"
       x2="1"
       y1="0"
       x1="0">
      <stop
         id="stop2796"
         offset="0"
         style="stop-opacity:1;stop-color:#d0e8f8" />
      <stop
         id="stop2798"
         offset="1"
         style="stop-opacity:1;stop-color:#e2eef9" />
    </linearGradient>
    <linearGradient
       id="linearGradient2780"
       spreadMethod="pad"
       gradientTransform="matrix(15.601304,15.601304,15.601304,-15.601304,925.50201,710.02399)"
       gradientUnits="userSpaceOnUse"
       y2="0"
       x2="1"
       y1="0"
       x1="0">
      <stop
         id="stop2776"
         offset="0"
         style="stop-opacity:1;stop-color:#00aeef" />
      <stop
         id="stop2778"
         offset="1"
         style="stop-opacity:1;stop-color:#00bdf2" />
    </linearGradient>
    <clipPath
       id="clipPath3254-9-70"
       clipPathUnits="userSpaceOnUse">
      <path
         inkscape:connector-curvature="0"
         id="path3252-7-9"
         d="M 0,943.388 H 1828.656 V 0 H 0 Z" />
    </clipPath>
    <clipPath
       id="clipPath2810-7"
       clipPathUnits="userSpaceOnUse">
      <path
         inkscape:connector-curvature="0"
         id="path2808-0"
         d="M 0,943.388 H 1828.656 V 0 H 0 Z" />
    </clipPath>
    <clipPath
       id="clipPath3254-9-93"
       clipPathUnits="userSpaceOnUse">
      <path
         inkscape:connector-curvature="0"
         id="path3252-7-21"
         d="M 0,943.388 H 1828.656 V 0 H 0 Z" />
    </clipPath>
    <linearGradient
       id="linearGradient1908"
       spreadMethod="pad"
       gradientTransform="matrix(2.9717422,2.9717422,2.9717422,-2.9717422,1039.1809,725.54553)"
       gradientUnits="userSpaceOnUse"
       y2="0"
       x2="1"
       y1="0"
       x1="0">
      <stop
         id="stop1904"
         offset="0"
         style="stop-opacity:1;stop-color:#fdb727" />
      <stop
         id="stop1906"
         offset="1"
         style="stop-opacity:1;stop-color:#ffce22" />
    </linearGradient>
    <linearGradient
       id="linearGradient1888"
       spreadMethod="pad"
       gradientTransform="matrix(3.6693649,3.6693649,3.6693649,-3.6693649,1094.0217,728.71637)"
       gradientUnits="userSpaceOnUse"
       y2="0"
       x2="1"
       y1="0"
       x1="0">
      <stop
         id="stop1884"
         offset="0"
         style="stop-opacity:1;stop-color:#fdb727" />
      <stop
         id="stop1886"
         offset="1"
         style="stop-opacity:1;stop-color:#ffce22" />
    </linearGradient>
    <clipPath
       id="clipPath1866"
       clipPathUnits="userSpaceOnUse">
      <path
         inkscape:connector-curvature="0"
         id="path1864"
         d="M 0,943.388 H 1828.656 V 0 H 0 Z" />
    </clipPath>
    <linearGradient
       id="linearGradient1856"
       spreadMethod="pad"
       gradientTransform="matrix(56.666687,0,0,-56.666687,1033.924,709.15155)"
       gradientUnits="userSpaceOnUse"
       y2="0"
       x2="1"
       y1="0"
       x1="0">
      <stop
         id="stop1852"
         offset="0"
         style="stop-opacity:1;stop-color:#d0e8f8" />
      <stop
         id="stop1854"
         offset="1"
         style="stop-opacity:1;stop-color:#e2eef9" />
    </linearGradient>
    <linearGradient
       id="linearGradient1836"
       spreadMethod="pad"
       gradientTransform="matrix(15.601304,15.601304,15.601304,-15.601304,1076.5402,711.65576)"
       gradientUnits="userSpaceOnUse"
       y2="0"
       x2="1"
       y1="0"
       x1="0">
      <stop
         id="stop1832"
         offset="0"
         style="stop-opacity:1;stop-color:#00aeef" />
      <stop
         id="stop1834"
         offset="1"
         style="stop-opacity:1;stop-color:#00bdf2" />
    </linearGradient>
    <clipPath
       id="clipPath3254-9-63"
       clipPathUnits="userSpaceOnUse">
      <path
         inkscape:connector-curvature="0"
         id="path3252-7-28"
         d="M 0,943.388 H 1828.656 V 0 H 0 Z" />
    </clipPath>
    <linearGradient
       id="linearGradient1388"
       spreadMethod="pad"
       gradientTransform="matrix(20.325035,20.325035,20.325035,-20.325035,314.87137,525.93689)"
       gradientUnits="userSpaceOnUse"
       y2="0"
       x2="1"
       y1="0"
       x1="0">
      <stop
         id="stop1384"
         offset="0"
         style="stop-opacity:1;stop-color:#d0e8f8" />
      <stop
         id="stop1386"
         offset="1"
         style="stop-opacity:1;stop-color:#e2eef9" />
    </linearGradient>
    <clipPath
       id="clipPath1366-3"
       clipPathUnits="userSpaceOnUse">
      <path
         inkscape:connector-curvature="0"
         id="path1364-0"
         d="M 0,943.388 H 1828.656 V 0 H 0 Z" />
    </clipPath>
    <linearGradient
       id="linearGradient1356"
       spreadMethod="pad"
       gradientTransform="matrix(19.207622,19.207622,19.207622,-19.207622,291.91434,510.21103)"
       gradientUnits="userSpaceOnUse"
       y2="0"
       x2="1"
       y1="0"
       x1="0">
      <stop
         id="stop1352"
         offset="0"
         style="stop-opacity:1;stop-color:#fdb727" />
      <stop
         id="stop1354"
         offset="1"
         style="stop-opacity:1;stop-color:#ffce22" />
    </linearGradient>
    <linearGradient
       id="linearGradient1336"
       spreadMethod="pad"
       gradientTransform="matrix(18.332756,18.332756,18.332756,-18.332756,316.48221,547.01764)"
       gradientUnits="userSpaceOnUse"
       y2="0"
       x2="1"
       y1="0"
       x1="0">
      <stop
         id="stop1332"
         offset="0"
         style="stop-opacity:1;stop-color:#fdb727" />
      <stop
         id="stop1334"
         offset="1"
         style="stop-opacity:1;stop-color:#ffce22" />
    </linearGradient>
    <clipPath
       id="clipPath3254-9-2"
       clipPathUnits="userSpaceOnUse">
      <path
         inkscape:connector-curvature="0"
         id="path3252-7-99"
         d="M 0,943.388 H 1828.656 V 0 H 0 Z" />
    </clipPath>
    <linearGradient
       spreadMethod="pad"
       y2="0"
       x2="1"
       y1="0"
       x1="0"
       gradientTransform="matrix(20.325035,20.325035,20.325035,-20.325035,314.87137,688.47217)"
       gradientUnits="userSpaceOnUse"
       id="linearGradient5203"
       xlink:href="#linearGradient3276"
       inkscape:collect="always" />
    <linearGradient
       spreadMethod="pad"
       y2="0"
       x2="1"
       y1="0"
       x1="0"
       gradientTransform="matrix(6.8876667,0,0,-6.8876667,283.76889,679.18317)"
       gradientUnits="userSpaceOnUse"
       id="linearGradient5205"
       xlink:href="#linearGradient3296"
       inkscape:collect="always" />
    <linearGradient
       spreadMethod="pad"
       y2="0"
       x2="1"
       y1="0"
       x1="0"
       gradientTransform="matrix(6.8876667,0,0,-6.8876667,299.88071,679.18317)"
       gradientUnits="userSpaceOnUse"
       id="linearGradient5207"
       xlink:href="#linearGradient3316"
       inkscape:collect="always" />
    <linearGradient
       spreadMethod="pad"
       y2="0"
       x2="1"
       y1="0"
       x1="0"
       gradientTransform="matrix(6.8876667,0,0,-6.8876667,315.99252,679.18317)"
       gradientUnits="userSpaceOnUse"
       id="linearGradient5209"
       xlink:href="#linearGradient3336"
       inkscape:collect="always" />
    <linearGradient
       spreadMethod="pad"
       y2="0"
       x2="1"
       y1="0"
       x1="0"
       gradientTransform="matrix(6.8876667,0,0,-6.8876667,288.76889,672.00311)"
       gradientUnits="userSpaceOnUse"
       id="linearGradient5211"
       xlink:href="#linearGradient3356"
       inkscape:collect="always" />
    <linearGradient
       spreadMethod="pad"
       y2="0"
       x2="1"
       y1="0"
       x1="0"
       gradientTransform="matrix(6.8876667,0,0,-6.8876667,305.3812,672.00311)"
       gradientUnits="userSpaceOnUse"
       id="linearGradient5213"
       xlink:href="#linearGradient3376"
       inkscape:collect="always" />
    <linearGradient
       spreadMethod="pad"
       y2="0"
       x2="1"
       y1="0"
       x1="0"
       gradientTransform="matrix(6.8876667,0,0,-6.8876667,321.99252,672.00311)"
       gradientUnits="userSpaceOnUse"
       id="linearGradient5215"
       xlink:href="#linearGradient3396"
       inkscape:collect="always" />
    <linearGradient
       id="linearGradient1816"
       spreadMethod="pad"
       gradientTransform="matrix(10.499464,0,0,-10.499464,605.34521,513.62537)"
       gradientUnits="userSpaceOnUse"
       y2="0"
       x2="1"
       y1="0"
       x1="0">
      <stop
         id="stop1812"
         offset="0"
         style="stop-opacity:1;stop-color:#00aeef" />
      <stop
         id="stop1814"
         offset="1"
         style="stop-opacity:1;stop-color:#00bdf2" />
    </linearGradient>
    <linearGradient
       id="linearGradient1796"
       spreadMethod="pad"
       gradientTransform="matrix(10.499464,0,0,-10.499464,594.21094,513.62537)"
       gradientUnits="userSpaceOnUse"
       y2="0"
       x2="1"
       y1="0"
       x1="0">
      <stop
         id="stop1792"
         offset="0"
         style="stop-opacity:1;stop-color:#00aeef" />
      <stop
         id="stop1794"
         offset="1"
         style="stop-opacity:1;stop-color:#00bdf2" />
    </linearGradient>
    <linearGradient
       id="linearGradient1776"
       spreadMethod="pad"
       gradientTransform="matrix(10.499464,0,0,-10.499464,583.07666,513.62537)"
       gradientUnits="userSpaceOnUse"
       y2="0"
       x2="1"
       y1="0"
       x1="0">
      <stop
         id="stop1772"
         offset="0"
         style="stop-opacity:1;stop-color:#00aeef" />
      <stop
         id="stop1774"
         offset="1"
         style="stop-opacity:1;stop-color:#00bdf2" />
    </linearGradient>
    <linearGradient
       id="linearGradient1756"
       spreadMethod="pad"
       gradientTransform="matrix(20.325035,20.325035,20.325035,-20.325035,618.00739,526.0426)"
       gradientUnits="userSpaceOnUse"
       y2="0"
       x2="1"
       y1="0"
       x1="0">
      <stop
         id="stop1752"
         offset="0"
         style="stop-opacity:1;stop-color:#d0e8f8" />
      <stop
         id="stop1754"
         offset="1"
         style="stop-opacity:1;stop-color:#e2eef9" />
    </linearGradient>
    <clipPath
       id="clipPath1734"
       clipPathUnits="userSpaceOnUse">
      <path
         inkscape:connector-curvature="0"
         id="path1732"
         d="M 0,943.388 H 1828.656 V 0 H 0 Z" />
    </clipPath>
  </defs>
  <sodipodi:namedview
     inkscape:document-rotation="0"
     inkscape:window-maximized="1"
     inkscape:window-y="-9"
     inkscape:window-x="-9"
     inkscape:window-height="996"
     inkscape:window-width="1920"
     inkscape:pagecheckerboard="true"
     showgrid="false"
     inkscape:current-layer="layer1"
     inkscape:document-units="mm"
     inkscape:cy="74.08088"
     inkscape:cx="42.027077"
     inkscape:zoom="9.3234282"
     inkscape:pageshadow="2"
     inkscape:pageopacity="0.0"
     borderopacity="1.0"
     bordercolor="#666666"
     pagecolor="#ffffff"
     id="base" />
  <metadata
     id="metadata5">
    <rdf:RDF>
      <cc:Work
         rdf:about="">
        <dc:format>image/svg+xml</dc:format>
        <dc:type
           rdf:resource="http://purl.org/dc/dcmitype/StillImage" />
        <dc:title />
      </cc:Work>
    </rdf:RDF>
  </metadata>
  <g
     transform="translate(60.708217,-175.95413)"
     id="layer1"
     inkscape:groupmode="layer"
     inkscape:label="Layer 1">
    <g
       id="g1728"
       transform="matrix(0.35277777,0,0,-0.35277777,-261.47168,382.49873)">
      <g
         clip-path="url(#clipPath1734)"
         id="g1730">
        <g
           transform="translate(625.2643,528.6002)"
           id="g1736">
          <path
             inkscape:connector-curvature="0"
             id="path1738"
             style="fill:#ffffff;fill-opacity:1;fill-rule:nonzero;stroke:none"
             d="m 0,0 c 5.89,0 10.664,4.774 10.664,10.664 0,5.889 -4.774,10.664 -10.664,10.664 -0.037,0 -0.072,-0.005 -0.109,-0.006 -0.949,8.504 -8.158,15.117 -16.915,15.117 -6.915,0 -12.864,-4.126 -15.528,-10.049 -0.084,0.002 -0.168,0.006 -0.252,0.006 -7.29,0 -13.199,-5.909 -13.199,-13.198 C -46.003,5.909 -40.094,0 -32.804,0" />
        </g>
      </g>
    </g>
    <g
       id="g1740"
       transform="matrix(0.35277777,0,0,-0.35277777,-261.47168,382.49873)">
      <g
         id="g1742">
        <g
           id="g1748">
          <g
             id="g1750">
            <path
               inkscape:connector-curvature="0"
               id="path1758"
               style="fill:url(#linearGradient1756);stroke:none"
               d="m 619.041,545.171 c -0.053,10e-4 -0.106,0.005 -0.159,0.005 v 0 c -4.577,0 -8.287,-3.711 -8.287,-8.288 v 0 c 0,-4.578 3.71,-8.287 8.287,-8.287 v 0 h 20.6 c 3.698,0 6.696,2.998 6.696,6.696 v 0 c 0,3.698 -2.998,6.696 -6.696,6.696 v 0 c -0.023,0 -0.046,-0.004 -0.068,-0.004 v 0 c -0.596,5.341 -5.124,9.492 -10.622,9.492 v 0 c -4.342,0 -8.077,-2.59 -9.751,-6.31" />
          </g>
        </g>
      </g>
    </g>
    <g
       id="g1780"
       transform="matrix(0.35277777,0,0,-0.35277777,-261.47168,382.49873)">
      <g
         id="g1782">
        <g
           id="g1788">
          <g
             id="g1790">
            <path
               inkscape:connector-curvature="0"
               id="path1798"
               style="fill:url(#linearGradient1796);stroke:none"
               d="m 600.978,520.253 -6.499,-11.256 c -0.552,-0.957 -0.224,-2.18 0.732,-2.733 v 0 c 0.315,-0.181 0.658,-0.268 0.998,-0.268 v 0 c 0.692,0 1.364,0.359 1.734,1.001 v 0 l 6.499,11.256 c 0.552,0.957 0.225,2.18 -0.732,2.733 v 0 c -0.315,0.182 -0.659,0.268 -0.998,0.268 v 0 c -0.691,0 -1.364,-0.359 -1.734,-1.001" />
          </g>
        </g>
      </g>
    </g>
    <g
       id="g1800"
       transform="matrix(0.35277777,0,0,-0.35277777,-261.47168,382.49873)">
      <g
         id="g1802">
        <g
           id="g1808">
          <g
             id="g1810">
            <path
               inkscape:connector-curvature="0"
               id="path1818"
               style="fill:url(#linearGradient1816);stroke:none"
               d="m 612.112,520.253 -6.498,-11.256 c -0.553,-0.957 -0.225,-2.18 0.731,-2.733 v 0 c 0.315,-0.181 0.659,-0.268 0.998,-0.268 v 0 c 0.692,0 1.364,0.359 1.735,1.001 v 0 l 6.499,11.256 c 0.551,0.957 0.224,2.18 -0.733,2.733 v 0 c -0.315,0.182 -0.659,0.268 -0.998,0.268 v 0 c -0.691,0 -1.363,-0.359 -1.734,-1.001" />
          </g>
        </g>
      </g>
    </g>
    <g
       transform="translate(126.53867,378.98276)"
       id="use4399"
       style="opacity:0"
       inkscape:tile-x0="-187.24688"
       inkscape:tile-y0="-203.02862">
      <rect
         y="-203.02863"
         x="-187.24689"
         height="30"
         width="30"
         id="rect5121"
         style="opacity:0;fill:#a5c2d1;fill-opacity:1;stroke:none;stroke-width:2.43217826;stroke-miterlimit:4;stroke-dasharray:none;stroke-dashoffset:0;stroke-opacity:1;paint-order:markers stroke fill" />
      <g
         id="g5129"
         transform="matrix(0.35277777,0,0,-0.35277777,-281.09034,58.715968)">
        <g
           clip-path="url(#clipPath3254-9-2)"
           id="g5127">
          <g
             transform="translate(322.1286,691.0299)"
             id="g5125">
            <path
               inkscape:connector-curvature="0"
               id="path5123"
               style="fill:#ffffff;fill-opacity:1;fill-rule:nonzero;stroke:none"
               d="m 0,0 c 5.889,0 10.664,4.774 10.664,10.664 0,5.889 -4.775,10.664 -10.664,10.664 -0.037,0 -0.072,-0.006 -0.109,-0.006 -0.949,8.504 -8.158,15.116 -16.915,15.116 -6.915,0 -12.864,-4.125 -15.528,-10.048 -0.085,0.002 -0.168,0.006 -0.253,0.006 -7.289,0 -13.198,-5.909 -13.198,-13.198 C -46.003,5.909 -40.094,0 -32.805,0" />
          </g>
        </g>
      </g>
      <g
         id="g5139"
         transform="matrix(0.35277777,0,0,-0.35277777,-281.09034,58.715968)">
        <g
           id="g5137">
          <g
             id="g5135">
            <g
               id="g5133">
              <path
                 inkscape:connector-curvature="0"
                 id="path5131"
                 style="fill:url(#linearGradient5203);stroke:none"
                 d="m 315.904,707.602 c -0.052,0 -0.104,0.003 -0.157,0.003 v 0 c -4.577,0 -8.288,-3.711 -8.288,-8.288 v 0 c 0,-4.576 3.711,-8.287 8.288,-8.287 v 0 h 20.599 c 3.698,0 6.696,2.998 6.696,6.696 v 0 c 0,3.698 -2.998,6.697 -6.696,6.697 v 0 c -0.023,0 -0.046,-0.004 -0.068,-0.004 v 0 c -0.596,5.34 -5.123,9.492 -10.622,9.492 v 0 c -4.342,0 -8.078,-2.591 -9.752,-6.309" />
            </g>
          </g>
        </g>
      </g>
      <g
         id="g5149"
         transform="matrix(0.35277777,0,0,-0.35277777,-281.09034,58.715968)">
        <g
           id="g5147">
          <g
             id="g5145">
            <g
               id="g5143">
              <path
                 inkscape:connector-curvature="0"
                 id="path5141"
                 style="fill:url(#linearGradient5205);stroke:none"
                 d="m 286.924,682.682 -2.888,-4.999 c -0.551,-0.957 -0.224,-2.18 0.733,-2.732 v 0 c 0.316,-0.182 0.66,-0.269 0.998,-0.269 v 0 c 0.691,0 1.364,0.359 1.734,1.001 v 0 l 2.888,5 c 0.551,0.956 0.224,2.179 -0.733,2.732 v 0 c -0.316,0.182 -0.66,0.269 -0.999,0.269 v 0 c -0.692,0 -1.363,-0.36 -1.733,-1.002" />
            </g>
          </g>
        </g>
      </g>
      <g
         id="g5159"
         transform="matrix(0.35277777,0,0,-0.35277777,-281.09034,58.715968)">
        <g
           id="g5157">
          <g
             id="g5155">
            <g
               id="g5153">
              <path
                 inkscape:connector-curvature="0"
                 id="path5151"
                 style="fill:url(#linearGradient5207);stroke:none"
                 d="m 303.035,682.682 -2.887,-4.999 c -0.552,-0.957 -0.224,-2.18 0.733,-2.732 v 0 c 0.316,-0.182 0.659,-0.269 0.998,-0.269 v 0 c 0.691,0 1.363,0.359 1.734,1.001 v 0 l 2.887,5 c 0.552,0.956 0.224,2.179 -0.732,2.732 v 0 c -0.316,0.182 -0.66,0.269 -1,0.269 v 0 c -0.691,0 -1.362,-0.36 -1.733,-1.002" />
            </g>
          </g>
        </g>
      </g>
      <g
         id="g5169"
         transform="matrix(0.35277777,0,0,-0.35277777,-281.09034,58.715968)">
        <g
           id="g5167">
          <g
             id="g5165">
            <g
               id="g5163">
              <path
                 inkscape:connector-curvature="0"
                 id="path5161"
                 style="fill:url(#linearGradient5209);stroke:none"
                 d="m 319.147,682.682 -2.887,-4.999 c -0.552,-0.957 -0.224,-2.18 0.733,-2.732 v 0 c 0.316,-0.182 0.659,-0.269 0.998,-0.269 v 0 c 0.691,0 1.363,0.359 1.734,1.001 v 0 l 2.887,5 c 0.552,0.956 0.224,2.179 -0.732,2.732 v 0 c -0.316,0.182 -0.661,0.269 -1,0.269 v 0 c -0.691,0 -1.362,-0.36 -1.733,-1.002" />
            </g>
          </g>
        </g>
      </g>
      <g
         id="g5179"
         transform="matrix(0.35277777,0,0,-0.35277777,-281.09034,58.715968)">
        <g
           id="g5177">
          <g
             id="g5175">
            <g
               id="g5173">
              <path
                 inkscape:connector-curvature="0"
                 id="path5171"
                 style="fill:url(#linearGradient5211);stroke:none"
                 d="m 291.923,675.503 -2.886,-5 c -0.552,-0.956 -0.225,-2.18 0.732,-2.732 v 0 c 0.315,-0.182 0.659,-0.269 0.998,-0.269 v 0 c 0.692,0 1.363,0.359 1.735,1.001 v 0 l 2.886,5 c 0.552,0.957 0.225,2.18 -0.733,2.732 v 0 c -0.315,0.182 -0.659,0.269 -0.999,0.269 v 0 c -0.691,0 -1.362,-0.359 -1.733,-1.001" />
            </g>
          </g>
        </g>
      </g>
      <g
         id="g5189"
         transform="matrix(0.35277777,0,0,-0.35277777,-281.09034,58.715968)">
        <g
           id="g5187">
          <g
             id="g5185">
            <g
               id="g5183">
              <path
                 inkscape:connector-curvature="0"
                 id="path5181"
                 style="fill:url(#linearGradient5213);stroke:none"
                 d="m 308.536,675.503 -2.887,-5 c -0.552,-0.956 -0.224,-2.18 0.733,-2.732 v 0 c 0.315,-0.182 0.658,-0.269 0.998,-0.269 v 0 c 0.691,0 1.363,0.359 1.734,1.001 v 0 l 2.886,5 c 0.552,0.957 0.225,2.18 -0.731,2.732 v 0 c -0.317,0.182 -0.661,0.269 -1.001,0.269 v 0 c -0.691,0 -1.361,-0.359 -1.732,-1.001" />
            </g>
          </g>
        </g>
      </g>
      <g
         id="g5199"
         transform="matrix(0.35277777,0,0,-0.35277777,-281.09034,58.715968)">
        <g
           id="g5197">
          <g
             id="g5195">
            <g
               id="g5193">
              <path
                 inkscape:connector-curvature="0"
                 id="path5191"
                 style="fill:url(#linearGradient5215);stroke:none"
                 d="m 325.147,675.503 -2.887,-5 c -0.551,-0.956 -0.224,-2.18 0.733,-2.732 v 0 c 0.315,-0.182 0.659,-0.269 0.998,-0.269 v 0 c 0.691,0 1.363,0.359 1.734,1.001 v 0 l 2.887,5 c 0.551,0.957 0.225,2.18 -0.732,2.732 v 0 c -0.316,0.182 -0.661,0.269 -1,0.269 v 0 c -0.691,0 -1.362,-0.359 -1.733,-1.001" />
            </g>
          </g>
        </g>
      </g>
    </g>
  </g>
</svg>
