<?xml version="1.0" encoding="UTF-8" standalone="no"?>
<!-- Created with Inkscape (http://www.inkscape.org/) -->

<svg
   xmlns:dc="http://purl.org/dc/elements/1.1/"
   xmlns:cc="http://creativecommons.org/ns#"
   xmlns:rdf="http://www.w3.org/1999/02/22-rdf-syntax-ns#"
   xmlns:svg="http://www.w3.org/2000/svg"
   xmlns="http://www.w3.org/2000/svg"
   xmlns:sodipodi="http://sodipodi.sourceforge.net/DTD/sodipodi-0.dtd"
   xmlns:inkscape="http://www.inkscape.org/namespaces/inkscape"
   width="33.866665mm"
   height="33.866665mm"
   viewBox="0 0 33.866665 33.866665"
   version="1.1"
   id="svg8"
   inkscape:version="0.92.5 (2060ec1f9f, 2020-04-08)"
   sodipodi:docname="half_clear_sky_night.svg">
  <defs
     id="defs2" />
  <sodipodi:namedview
     id="base"
     pagecolor="#ffffff"
     bordercolor="#666666"
     borderopacity="1.0"
     inkscape:pageopacity="0.0"
     inkscape:pageshadow="2"
     inkscape:zoom="3.959798"
     inkscape:cx="81.705292"
     inkscape:cy="77.468946"
     inkscape:document-units="mm"
     inkscape:current-layer="layer1"
     showgrid="false"
     inkscape:window-width="1916"
     inkscape:window-height="1055"
     inkscape:window-x="0"
     inkscape:window-y="761"
     inkscape:window-maximized="0" />
  <metadata
     id="metadata5">
    <rdf:RDF>
      <cc:Work
         rdf:about="">
        <dc:format>image/svg+xml</dc:format>
        <dc:type
           rdf:resource="http://purl.org/dc/dcmitype/StillImage" />
        <dc:title></dc:title>
      </cc:Work>
    </rdf:RDF>
  </metadata>
  <g
     inkscape:label="Layer 1"
     inkscape:groupmode="layer"
     id="layer1"
     transform="translate(224.18164,-151.83417)">
    <path
       id="path4439"
       d="m -211.55059,158.25826 a 8.4666659,8.4666659 0 0 1 3.09902,11.56565 8.4666659,8.4666659 0 0 1 -11.56569,3.09898 8.4666659,8.4666659 0 0 1 -3.03622,-3.01138 7.408336,7.4083325 30 0 0 9.56091,-2.998 7.408336,7.4083325 30 0 0 -2.19093,-9.7847 8.4666659,8.4666659 0 0 1 4.13291,1.12945 z"
       style="fill:#ffdf00;fill-opacity:1;stroke:#dcc204;stroke-width:0.79374993;stroke-linecap:round;stroke-linejoin:round;stroke-miterlimit:4;stroke-dasharray:none;stroke-dashoffset:0;stroke-opacity:1;paint-order:markers fill stroke"
       inkscape:connector-curvature="0" />
    <path
       id="path3310"
       d="m -204.63951,161.88876 a 7.143746,6.790971 0 0 0 -6.535,4.06795 7.143746,6.790971 0 0 0 -1.62935,-0.18759 7.143746,6.790971 0 0 0 -7.14375,6.79128 7.143746,6.790971 0 0 0 7.14375,6.79076 h 14.2875 a 7.143746,5.8208331 0 0 0 7.14374,-5.82079 7.143746,5.8208331 0 0 0 -6.19654,-5.76241 7.143746,6.790971 0 0 0 -7.07035,-5.8792 z"
       style="fill:#ffffff;fill-opacity:1;stroke:#b8cecc;stroke-width:0.79400003;stroke-linecap:round;stroke-linejoin:miter;stroke-miterlimit:4;stroke-dasharray:none;stroke-dashoffset:0;stroke-opacity:1;paint-order:markers fill stroke"
       inkscape:connector-curvature="0" />
  </g>
</svg>
